<?xml version="1.0" encoding="UTF-8" standalone="no"?>
<!-- Created with Inkscape (http://www.inkscape.org/) -->

<svg
   xmlns:dc="http://purl.org/dc/elements/1.1/"
   xmlns:cc="http://creativecommons.org/ns#"
   xmlns:rdf="http://www.w3.org/1999/02/22-rdf-syntax-ns#"
   xmlns:svg="http://www.w3.org/2000/svg"
   xmlns="http://www.w3.org/2000/svg"
   xmlns:sodipodi="http://sodipodi.sourceforge.net/DTD/sodipodi-0.dtd"
   xmlns:inkscape="http://www.inkscape.org/namespaces/inkscape"
   width="60"
   height="60"
   viewBox="0 0 15.875 15.875001"
   version="1.1"
   id="svg8"
   inkscape:version="0.92.3 (2405546, 2018-03-11)"
   sodipodi:docname="cv_icon_green.svg">
  <defs
     id="defs2" />
  <sodipodi:namedview
     id="base"
     pagecolor="#ffffff"
     bordercolor="#666666"
     borderopacity="1.0"
     inkscape:pageopacity="0.0"
     inkscape:pageshadow="2"
     inkscape:zoom="9.3827484"
     inkscape:cx="28.743512"
     inkscape:cy="34.055187"
     inkscape:document-units="mm"
     inkscape:current-layer="layer1"
     showgrid="true"
     units="px"
     inkscape:snap-global="false"
     inkscape:window-width="1920"
     inkscape:window-height="1017"
     inkscape:window-x="-8"
     inkscape:window-y="-8"
     inkscape:window-maximized="1">
    <inkscape:grid
       type="xygrid"
       id="grid1081" />
  </sodipodi:namedview>
  <metadata
     id="metadata5">
    <rdf:RDF>
      <cc:Work
         rdf:about="">
        <dc:format>image/svg+xml</dc:format>
        <dc:type
           rdf:resource="http://purl.org/dc/dcmitype/StillImage" />
        <dc:title></dc:title>
      </cc:Work>
    </rdf:RDF>
  </metadata>
  <g
     inkscape:label="Layer 1"
     inkscape:groupmode="layer"
     id="layer1"
     transform="translate(0,-281.12498)">
    <path
       style="opacity:1;fill:#00ff00;fill-opacity:1;stroke:none;stroke-width:0.64169604;stroke-linejoin:round;stroke-miterlimit:4;stroke-dasharray:none;stroke-opacity:1"
       d="m 0.36634828,287.21033 c -0.84190032,3.23375 1.98040122,5.73368 6.18851342,7.39402 4.0515943,1.59858 8.2601753,-0.3653 9.0504843,-3.32541 0.79029,-2.96006 -1.89579,-6.65697 -6.1885026,-7.394 -6.4537895,-1.10808 -8.2085853,0.0916 -9.05049512,3.32539 z"
       id="path2770-6-4"
       inkscape:connector-curvature="0"
       sodipodi:nodetypes="zsssz" />
    <g
       id="text6872"
       style="font-style:normal;font-variant:normal;font-weight:normal;font-stretch:normal;font-size:14.11111069px;line-height:125%;font-family:Arial;-inkscape-font-specification:Arial;letter-spacing:0px;word-spacing:0px;fill:#ffffff;fill-opacity:1;stroke:none;stroke-width:0.26458332px;stroke-linecap:butt;stroke-linejoin:miter;stroke-opacity:1"
       aria-label="CV"
       transform="matrix(1.2780515,0,0,1.2780515,-490.19077,-44.460841)">
      <path
         id="path6874"
         style="fill:#ffffff;fill-opacity:1;stroke-width:0.26458332px"
         d="m 388.55438,261.39577 c 0,0 0.4178,0.38411 0.4178,0.38411 -0.35123,0.38569 -0.72414,0.62122 -1.11515,0.70706 -0.38181,0.0835 -0.7499,0.0227 -1.10239,-0.17766 -0.35574,-0.20218 -0.59228,-0.44545 -0.7148,-0.73013 -0.1182,-0.28104 -0.14454,-0.60312 -0.0809,-0.96713 0.0645,-0.36004 0.19515,-0.71256 0.39215,-1.05964 0.21457,-0.37806 0.46382,-0.6792 0.74963,-0.90512 0.29054,-0.22878 0.59907,-0.36752 0.92777,-0.41538 0.33665,-0.0497 0.66132,-0.0138 0.97464,0.11023 0.36329,0.14385 0.61958,0.36691 0.76416,0.67046 0.1471,0.30881 0.16983,0.67177 0.0657,1.08727 0,0 -0.56496,-0.0979 -0.56496,-0.0979 0.0749,-0.32565 0.0667,-0.58811 -0.0237,-0.78731 -0.0894,-0.19702 -0.2551,-0.3449 -0.49495,-0.44408 -0.27112,-0.11211 -0.53353,-0.13524 -0.78864,-0.0715 -0.25067,0.0637 -0.47491,0.19563 -0.67424,0.39571 -0.19757,0.19761 -0.36494,0.41765 -0.50278,0.66087 -0.17792,0.31395 -0.29459,0.60837 -0.35015,0.88434 -0.0535,0.27679 -0.0299,0.51916 0.072,0.72771 0.10316,0.21117 0.25582,0.37289 0.45918,0.48433 0.25136,0.13776 0.51486,0.17258 0.78958,0.10202 0.27802,-0.0714 0.54535,-0.25747 0.80013,-0.55829 0,0 0,0 0,0"
         inkscape:connector-curvature="0" />
      <path
         id="path6876"
         style="fill:#ffffff;fill-opacity:1;stroke-width:0.26458332px"
         d="m 390.01212,264.06372 c 0,0 0.75426,-4.93907 0.75426,-4.93907 0,0 0.58657,0.2338 0.58657,0.2338 0,0 -0.61691,3.56154 -0.61691,3.56154 -0.0511,0.2977 -0.10832,0.5737 -0.17154,0.82742 0.19853,-0.2017 0.40856,-0.39838 0.63039,-0.59021 0,0 3.04534,-2.6479 3.04534,-2.6479 0,0 0.67941,0.27081 0.67941,0.27081 0,0 -4.33326,3.60822 -4.33326,3.60822 0,0 -0.57426,-0.32461 -0.57426,-0.32461"
         inkscape:connector-curvature="0" />
    </g>
  </g>
</svg>
