<?xml version="1.0" encoding="UTF-8" standalone="no"?>
<!-- Created with Inkscape (http://www.inkscape.org/) -->

<svg
   xmlns:dc="http://purl.org/dc/elements/1.1/"
   xmlns:cc="http://creativecommons.org/ns#"
   xmlns:rdf="http://www.w3.org/1999/02/22-rdf-syntax-ns#"
   xmlns:svg="http://www.w3.org/2000/svg"
   xmlns="http://www.w3.org/2000/svg"
   xmlns:sodipodi="http://sodipodi.sourceforge.net/DTD/sodipodi-0.dtd"
   xmlns:inkscape="http://www.inkscape.org/namespaces/inkscape"
   width="1920"
   height="1080"
   viewBox="0 0 508.00002 285.75"
   version="1.1"
   id="svg8"
   inkscape:version="0.92.3 (2405546, 2018-03-11)"
   sodipodi:docname="deck1_5.svg">
  <sodipodi:namedview
     id="base"
     pagecolor="#ffffff"
     bordercolor="#666666"
     borderopacity="1.0"
     inkscape:pageopacity="0.0"
     inkscape:pageshadow="2"
     inkscape:zoom="0.56470774"
     inkscape:cx="510.97753"
     inkscape:cy="79.792286"
     inkscape:document-units="mm"
     inkscape:current-layer="layer1"
     showgrid="false"
     units="px"
     inkscape:snap-global="false"
     showguides="true"
     inkscape:guide-bbox="true"
     inkscape:window-width="1920"
     inkscape:window-height="1017"
     inkscape:window-x="-8"
     inkscape:window-y="-8"
     inkscape:window-maximized="1">
    <inkscape:grid
       id="grid821"
       type="xygrid" />
    <sodipodi:guide
       inkscape:locked="false"
       id="guide1954"
       orientation="1,0"
       position="254.03073,286.55905" />
  </sodipodi:namedview>
  <defs
     id="defs2">
    <inkscape:path-effect
       only_selected="false"
       apply_with_weight="true"
       apply_no_weight="true"
       helper_size="0"
       steps="2"
       weight="33.333333"
       is_visible="true"
       id="path-effect817"
       effect="bspline" />
    <filter
       height="1.0371855"
       y="-0.018592766"
       width="2.1291792"
       x="-0.56458962"
       id="filter1663"
       style="color-interpolation-filters:sRGB"
       inkscape:collect="always">
      <feGaussianBlur
         id="feGaussianBlur1665"
         stdDeviation="1.0968941"
         inkscape:collect="always" />
    </filter>
    <filter
       height="1.0371855"
       y="-0.018592766"
       width="2.1291792"
       x="-0.56458962"
       id="filter1663-6"
       style="color-interpolation-filters:sRGB"
       inkscape:collect="always">
      <feGaussianBlur
         id="feGaussianBlur1665-9"
         stdDeviation="1.0968941"
         inkscape:collect="always" />
    </filter>
    <filter
       inkscape:collect="always"
       style="color-interpolation-filters:sRGB"
       id="filter2766"
       x="-0.012870591"
       width="1.0257412"
       y="-0.011239724"
       height="1.0224794">
      <feGaussianBlur
         inkscape:collect="always"
         stdDeviation="0.16070113"
         id="feGaussianBlur2768" />
    </filter>
  </defs>
  <metadata
     id="metadata5">
    <rdf:RDF>
      <cc:Work
         rdf:about="">
        <dc:format>image/svg+xml</dc:format>
        <dc:type
           rdf:resource="http://purl.org/dc/dcmitype/StillImage" />
        <dc:title />
      </cc:Work>
    </rdf:RDF>
  </metadata>
  <g
     transform="translate(0,-11.249984)"
     id="layer1"
     inkscape:groupmode="layer"
     inkscape:label="Layer 1">
    <path
       inkscape:connector-curvature="0"
       id="path1905"
       d="m 44.034404,297.35785 422.418506,0.42151 -97.63637,-41.30662 -231.98724,0.84299 z"
       style="fill:#f9f9f9;fill-rule:evenodd;stroke:none;stroke-width:0.27999073px;stroke-linecap:butt;stroke-linejoin:miter;stroke-opacity:1" />
    <path
       sodipodi:nodetypes="ccccccc"
       inkscape:connector-curvature="0"
       id="path1468-6"
       d="m 503.2049,281.12498 v 31.75 l -137.58334,-52.91666 -111.37328,-1e-5 v -26.45833 h 111.37328 z"
       style="fill:#b1cad6;fill-opacity:1;fill-rule:evenodd;stroke:none;stroke-width:0.26458332px;stroke-linecap:butt;stroke-linejoin:miter;stroke-opacity:1" />
    <path
       sodipodi:nodetypes="ccccccc"
       inkscape:connector-curvature="0"
       id="path1468"
       d="m 5.2916667,281.12498 v 31.75 L 142.875,259.95832 l 111.37328,-1e-5 0,-26.45833 H 142.875 Z"
       style="fill:#b1cad6;fill-opacity:1;fill-rule:evenodd;stroke:none;stroke-width:0.26458332px;stroke-linecap:butt;stroke-linejoin:miter;stroke-opacity:1" />
    <path
       sodipodi:nodetypes="zzzzz"
       inkscape:connector-curvature="0"
       id="path1474"
       d="m 13.916155,280.76883 c 2.116632,-3.7074 66.587372,-24.09234 68.613589,-22.76936 2.026217,1.32298 6.744922,15.36355 6.182051,17.52833 -0.562871,2.16478 -72.445689,30.59448 -73.777816,28.72269 -1.332127,-1.87179 -3.134456,-19.77426 -1.017824,-23.48166 z"
       style="fill:#cccccc;fill-rule:evenodd;stroke:#000000;stroke-width:0.52916667;stroke-linecap:butt;stroke-linejoin:miter;stroke-opacity:1;fill-opacity:1;stroke-miterlimit:4;stroke-dasharray:none" />
    <path
       sodipodi:nodetypes="zzzzz"
       inkscape:connector-curvature="0"
       id="path1474-7"
       d="m 17.794329,280.99913 c 1.890473,-3.31127 59.472619,-21.51811 61.28234,-20.33649 1.809719,1.18162 6.024236,13.72198 5.521509,15.65546 -0.50273,1.93348 -64.704987,27.32551 -65.894778,25.65372 -1.189792,-1.6718 -2.799545,-17.66142 -0.909071,-20.97269 z"
       style="fill:#000000;fill-rule:evenodd;stroke:#000000;stroke-width:0.23631303px;stroke-linecap:butt;stroke-linejoin:miter;stroke-opacity:1;fill-opacity:1.0" />
    <path
       sodipodi:nodetypes="ccccccccc"
       inkscape:connector-curvature="0"
       id="path1428"
       d="m 122.20489,58.874983 15.875,-10.583333 h 232.83333 l 15.875,10.583333 4.79511,145.520837 -21.16667,13.22917 H 137.58333 l -21.16666,-13.22917 z"
       style="fill:#999999;fill-rule:evenodd;stroke:none;stroke-width:0.26458332px;stroke-linecap:butt;stroke-linejoin:miter;stroke-opacity:1" />
    <path
       sodipodi:nodetypes="ccccccccc"
       inkscape:connector-curvature="0"
       id="path1428-2"
       d="m 125.71905,61.175491 15.35701,-10.238007 h 227.17237 l 15.357,10.238007 4.62245,140.599939 -20.47601,12.79751 H 140.5795 l -20.476,-12.79751 z"
       style="fill:#ffffff;fill-rule:evenodd;stroke:none;stroke-width:0.25595018px;stroke-linecap:butt;stroke-linejoin:miter;stroke-opacity:1" />
    <path
       sodipodi:nodetypes="assssccaa"
       inkscape:connector-curvature="0"
       id="path819"
       d="m 583.0253,107.73727 c -1.05956,-0.43707 -2.78521,-0.99435 -2.87163,-1.89132 -0.0623,-0.64665 4.89392,1.24652 7.36537,1.76016 30.75208,6.39115 55.62322,15.02738 86.50956,20.90897 30.88633,5.88159 64.63498,8.79835 95.90632,11.73783 25.23446,2.37202 96.76839,1.85869 96.76839,1.85869 l -17.58407,4.57101 c 0,0 -55.86042,1.17349 -83.54198,-1.92777 -61.70308,-6.91283 -125.15447,-13.34087 -182.55196,-37.01757 z"
       style="fill:none;fill-rule:evenodd;stroke:#000000;stroke-width:0.26458332px;stroke-linecap:butt;stroke-linejoin:miter;stroke-opacity:1" />
    <path
       style="fill:none;fill-rule:evenodd;stroke:#000000;stroke-width:0.26458332px;stroke-linecap:butt;stroke-linejoin:miter;stroke-opacity:1"
       d="m 1083.4632,107.73727 c 1.0595,-0.43707 2.7852,-0.99435 2.8716,-1.89132 0.062,-0.64665 -4.8939,1.24652 -7.3654,1.76016 -30.7521,6.39115 -55.6232,15.02738 -86.50953,20.90897 -30.88632,5.88159 -64.63497,9.11234 -95.90631,12.05182 -25.23446,2.37202 -86.10264,1.28217 -86.10264,1.28217 l 6.91832,4.83354 c 0,0 55.86042,1.17349 83.54198,-1.92777 61.70308,-6.91283 125.15448,-13.34087 182.55198,-37.01757 z"
       id="path823"
       inkscape:connector-curvature="0"
       sodipodi:nodetypes="assssccaa" />
    <path
       sodipodi:nodetypes="ccccccccc"
       inkscape:connector-curvature="0"
       id="path829"
       d="m 58.208333,35.062484 48.121557,23.8125 -0.49656,145.703246 -52.554404,40.59185 84.304404,-27.54509 -21.16666,-13.04676 5.78822,-145.703246 15.875,-10.583333 -79.871557,-13.229167"
       style="fill:#b3b3b3;fill-rule:evenodd;stroke:#b3b3b3;stroke-width:0.25384378px;stroke-linecap:butt;stroke-linejoin:miter;stroke-opacity:1" />
    <path
       sodipodi:nodetypes="cccccccc"
       inkscape:connector-curvature="0"
       id="path846"
       d="m 5.2916667,21.833317 v 5.291667 L 138.07989,48.29165 H 254.74484 L 254.49656,32.416651 H 143.12328 L 5.2916667,16.54165 Z"
       style="fill:#b3b3b3;fill-rule:evenodd;stroke:none;stroke-width:0.26458332px;stroke-linecap:butt;stroke-linejoin:miter;stroke-opacity:1" />
    <path
       sodipodi:nodetypes="cccccccc"
       inkscape:connector-curvature="0"
       id="path1405"
       d="M 5.2916716,259.95832 137.58333,217.62499 H 254 l 0.24828,10.58333 H 137.58333 L 5.2916716,270.54165 v -5.29166 z"
       style="fill:#b3b3b3;fill-rule:evenodd;stroke:#b3b3b3;stroke-width:0.26458332px;stroke-linecap:butt;stroke-linejoin:miter;stroke-opacity:1" />
    <path
       sodipodi:nodetypes="ccccccccc"
       inkscape:connector-curvature="0"
       id="path829-9"
       d="m 447.14583,35.062485 -44.4826,23.812499 -0.49656,145.703236 52.55441,40.59186 -84.30441,-27.5451 21.16666,-13.04676 -4.7951,-145.703236 -15.875,-10.583331 76.2326,-13.229168"
       style="fill:#b3b3b3;fill-rule:evenodd;stroke:#b3b3b3;stroke-width:0.25384378px;stroke-linecap:butt;stroke-linejoin:miter;stroke-opacity:1" />
    <path
       sodipodi:nodetypes="cccccccc"
       inkscape:connector-curvature="0"
       id="path846-2"
       d="m 502.70834,21.833318 v 5.291667 L 370.91323,48.291651 H 254.24828 L 254,32.416651 h 111.37328 l 137.33506,-15.875 z"
       style="fill:#b3b3b3;fill-rule:evenodd;stroke:none;stroke-width:0.26458332px;stroke-linecap:butt;stroke-linejoin:miter;stroke-opacity:1" />
    <path
       sodipodi:nodetypes="cccccccc"
       inkscape:connector-curvature="0"
       id="path1405-2"
       d="M 502.70834,259.95832 370.41667,217.62498 H 254 l -0.24828,10.58333 h 116.66495 l 132.29167,42.33334 v -5.29166 z"
       style="fill:#b3b3b3;fill-rule:evenodd;stroke:#b3b3b3;stroke-width:0.26458332px;stroke-linecap:butt;stroke-linejoin:miter;stroke-opacity:1" />
    <path
       sodipodi:nodetypes="ccccccccccccc"
       inkscape:connector-curvature="0"
       id="path1445"
       d="m 5.2916666,27.124984 1e-7,2.645833 51.5937493,7.9375 45.475724,22.489584 -0.49656,142.875009 -48.947908,38.36458 -47.6250003,15.875 -1e-7,2.64583 L 54.437858,244.38073 105.83333,204.39582 106.32989,58.874983 58.208332,35.062484 Z"
       style="fill:#999999;fill-rule:evenodd;stroke:none;stroke-width:0.26458332px;stroke-linecap:butt;stroke-linejoin:miter;stroke-opacity:1" />
    <path
       sodipodi:nodetypes="ccccccccccccc"
       inkscape:connector-curvature="0"
       id="path1445-7"
       d="m 502.70833,27.124984 v 2.645833 l -54.23958,7.9375 -41.83677,22.489584 -0.49656,142.875019 48.94791,38.36458 47.625,15.875 v 2.64583 l -49.14618,-15.57759 -51.39548,-39.98491 0.49656,-145.520846 44.4826,-23.8125 z"
       style="fill:#999999;fill-rule:evenodd;stroke:none;stroke-width:0.26458332px;stroke-linecap:butt;stroke-linejoin:miter;stroke-opacity:1" />
    <path
       sodipodi:nodetypes="ccccccccc"
       inkscape:connector-curvature="0"
       id="path1464"
       d="m 5.2916716,270.54165 -4.9e-6,10.58333 137.5833333,-47.625 h 222.25 l 137.58333,47.625 0,-10.58333 -132.29167,-42.33333 H 137.58333 Z"
       style="fill:#b3e3f2;fill-opacity:1;fill-rule:evenodd;stroke:#b3e3f2;stroke-width:0.26458332px;stroke-linecap:butt;stroke-linejoin:miter;stroke-opacity:1" />
    <rect
       transform="rotate(-19.013788)"
       y="274.08646"
       x="-72.682831"
       height="1.6026912"
       width="19.766523"
       id="rect1491"
       style="fill:#ff2a2a;fill-opacity:1;stroke:none;stroke-width:0.13229166;stroke-linejoin:round;stroke-miterlimit:4;stroke-dasharray:none;stroke-opacity:1" />
    <rect
       transform="rotate(-19.354623)"
       y="278.90115"
       x="-76.414459"
       height="1.6026912"
       width="19.766523"
       id="rect1491-9"
       style="fill:#ffd42a;fill-opacity:1;stroke:none;stroke-width:0.13229166;stroke-linejoin:round;stroke-miterlimit:4;stroke-dasharray:none;stroke-opacity:1" />
    <rect
       transform="rotate(-18.934647)"
       y="285.12094"
       x="-60.576145"
       height="1.7807679"
       width="5.6984577"
       id="rect1508"
       style="fill:#89a02c;fill-opacity:1;stroke:none;stroke-width:0.13229166;stroke-linejoin:round;stroke-miterlimit:4;stroke-dasharray:none;stroke-opacity:1" />
    <rect
       transform="rotate(-18.934648)"
       y="284.60666"
       x="-27.34729"
       height="1.7807679"
       width="5.6984577"
       id="rect1508-7"
       style="fill:#89a02c;fill-opacity:1;stroke:none;stroke-width:0.13229166;stroke-linejoin:round;stroke-miterlimit:4;stroke-dasharray:none;stroke-opacity:1" />
    <rect
       transform="rotate(-19.844222)"
       y="284.40338"
       x="-56.059048"
       height="1.6026912"
       width="19.766523"
       id="rect1491-3"
       style="fill:#ff2a2a;fill-opacity:1;stroke:none;stroke-width:0.13229166;stroke-linejoin:round;stroke-miterlimit:4;stroke-dasharray:none;stroke-opacity:1" />
    <rect
       transform="rotate(-18.934648)"
       y="285.43909"
       x="-69.680466"
       height="1.7807679"
       width="5.6984577"
       id="rect1508-7-6"
       style="fill:#ff00ff;fill-opacity:1;stroke:none;stroke-width:0.13229166;stroke-linejoin:round;stroke-miterlimit:4;stroke-dasharray:none;stroke-opacity:1" />
    <rect
       transform="rotate(-18.217063)"
       y="279.87582"
       x="-44.660118"
       height="1.6975702"
       width="9.2153807"
       id="rect1555"
       style="fill:#ff00ff;fill-opacity:1;stroke:#000000;stroke-width:0.13229166;stroke-linejoin:round;stroke-miterlimit:4;stroke-dasharray:none;stroke-opacity:1" />
    <rect
       transform="rotate(-19.013789)"
       y="279.66727"
       x="-34.646355"
       height="1.6026912"
       width="19.766523"
       id="rect1491-7"
       style="fill:#ffd42a;fill-opacity:1;stroke:none;stroke-width:0.13229166;stroke-linejoin:round;stroke-miterlimit:4;stroke-dasharray:none;stroke-opacity:1" />
    <rect
       transform="rotate(-18.934648)"
       y="274.07529"
       x="-46.541168"
       height="1.7807679"
       width="5.6984577"
       id="rect1508-7-1"
       style="fill:#89a02c;fill-opacity:1;stroke:none;stroke-width:0.13229166;stroke-linejoin:round;stroke-miterlimit:4;stroke-dasharray:none;stroke-opacity:1" />
    <rect
       transform="rotate(-18.331102)"
       y="274.42621"
       x="-34.265366"
       height="1.6026912"
       width="19.766523"
       id="rect1491-0"
       style="fill:#ff2a2a;fill-opacity:1;stroke:none;stroke-width:0.13229166;stroke-linejoin:round;stroke-miterlimit:4;stroke-dasharray:none;stroke-opacity:1" />
    <path
       sodipodi:nodetypes="cccssscc"
       inkscape:connector-curvature="0"
       id="path1956-7"
       d="m 242.71129,223.09236 22.39419,-0.0672 3.75242,27.89292 c 0,0 -3.48128,4.1914 -6.42917,5.41246 -2.08449,0.86342 -6.29769,1.00887 -8.55392,1.00887 -2.25623,0 -6.55647,-0.14545 -8.64095,-1.00887 -2.94791,-1.22106 -6.34216,-5.41246 -6.34216,-5.41246 z"
       style="opacity:0.58999999;fill:#333333;fill-rule:evenodd;stroke:none;stroke-width:0.2140443px;stroke-linecap:butt;stroke-linejoin:miter;stroke-opacity:1;filter:url(#filter2766)"
       transform="matrix(0.97814866,0,0,0.97814866,5.8833324,4.260479)" />
    <path
       sodipodi:nodetypes="ccccc"
       inkscape:connector-curvature="0"
       id="path1617"
       d="M 109.38168,202.27708 V 60.68729 l 4.66276,5.445761 -1.48357,132.142489 z"
       style="fill:#999999;fill-rule:evenodd;stroke:none;stroke-width:0.25195369px;stroke-linecap:butt;stroke-linejoin:miter;stroke-opacity:0.98492462;filter:url(#filter1663)" />
    <path
       sodipodi:nodetypes="cccc"
       inkscape:connector-curvature="0"
       id="path1667"
       d="m 64.090109,245.37184 46.584011,-35.60562 24.33051,13.94554 z"
       style="fill:#cccccc;fill-rule:evenodd;stroke:none;stroke-width:0.26458332px;stroke-linecap:butt;stroke-linejoin:miter;stroke-opacity:1" />
    <path
       sodipodi:nodetypes="cccc"
       inkscape:connector-curvature="0"
       id="path1667-6"
       d="m 76.555185,239.18822 35.030495,-26.7749 18.29618,10.48684 z"
       style="fill:#999999;fill-rule:evenodd;stroke:none;stroke-width:0.19896278px;stroke-linecap:butt;stroke-linejoin:miter;stroke-opacity:1" />
    <path
       sodipodi:nodetypes="zzzcaaacz"
       inkscape:connector-curvature="0"
       id="path1686"
       d="m 82.720338,236.73041 c -0.436713,0.005 -0.797592,-0.36436 -0.781505,-0.77333 0.01609,-0.40897 0.432398,-0.68886 0.848876,-0.6796 0.416478,0.009 0.525494,0.32808 0.525494,0.32808 0,0 -0.405015,0.006 -0.538968,0.11717 -0.06784,0.0563 -0.104738,0.15549 -0.08084,0.23435 0.03804,0.12554 0.175136,0.25408 0.323381,0.26949 0.159864,0.0166 0.417701,-0.21091 0.417701,-0.21091 0.02695,0.28122 -0.277421,0.7102 -0.714134,0.71475 z"
       style="fill:#cccccc;fill-rule:evenodd;stroke:none;stroke-width:0.07332139px;stroke-linecap:butt;stroke-linejoin:miter;stroke-opacity:1" />
    <path
       sodipodi:nodetypes="zzzcaaacz"
       inkscape:connector-curvature="0"
       id="path1686-9"
       d="m 88.119848,232.7361 c -0.436713,0.005 -0.797592,-0.36436 -0.781505,-0.77333 0.01609,-0.40897 0.432398,-0.68886 0.848876,-0.6796 0.416478,0.009 0.525494,0.32808 0.525494,0.32808 0,0 -0.405015,0.006 -0.538968,0.11717 -0.06784,0.0563 -0.104738,0.15549 -0.08084,0.23435 0.03804,0.12554 0.175136,0.25408 0.323381,0.26949 0.159864,0.0166 0.417701,-0.21091 0.417701,-0.21091 0.02695,0.28122 -0.277421,0.7102 -0.714134,0.71475 z"
       style="fill:#cccccc;fill-rule:evenodd;stroke:none;stroke-width:0.07332139px;stroke-linecap:butt;stroke-linejoin:miter;stroke-opacity:1" />
    <path
       sodipodi:nodetypes="zzzcaaacz"
       inkscape:connector-curvature="0"
       id="path1686-94"
       d="m 92.610795,229.52829 c -0.436713,0.005 -0.797592,-0.36436 -0.781505,-0.77333 0.01609,-0.40897 0.432398,-0.68886 0.848876,-0.6796 0.416478,0.009 0.525494,0.32808 0.525494,0.32808 0,0 -0.405015,0.006 -0.538968,0.11717 -0.06784,0.0563 -0.104738,0.15549 -0.08084,0.23435 0.03804,0.12554 0.175136,0.25408 0.323381,0.26949 0.159864,0.0166 0.417701,-0.21091 0.417701,-0.21091 0.02695,0.28122 -0.277421,0.7102 -0.714134,0.71475 z"
       style="fill:#cccccc;fill-rule:evenodd;stroke:none;stroke-width:0.07332139px;stroke-linecap:butt;stroke-linejoin:miter;stroke-opacity:1" />
    <path
       sodipodi:nodetypes="zzzcaaacz"
       inkscape:connector-curvature="0"
       id="path1686-5"
       d="m 96.845118,226.44878 c -0.436713,0.005 -0.797592,-0.36436 -0.781505,-0.77333 0.01609,-0.40897 0.432398,-0.68886 0.848876,-0.6796 0.416478,0.009 0.525494,0.32808 0.525494,0.32808 0,0 -0.405015,0.006 -0.538968,0.11717 -0.06784,0.0563 -0.104738,0.15549 -0.08084,0.23435 0.03804,0.12554 0.175136,0.25408 0.323381,0.26949 0.159864,0.0166 0.417701,-0.21091 0.417701,-0.21091 0.02695,0.28122 -0.277421,0.7102 -0.714134,0.71475 z"
       style="fill:#cccccc;fill-rule:evenodd;stroke:none;stroke-width:0.07332139px;stroke-linecap:butt;stroke-linejoin:miter;stroke-opacity:1" />
    <path
       sodipodi:nodetypes="zzzcaaacz"
       inkscape:connector-curvature="0"
       id="path1686-2"
       d="m 100.56619,223.69005 c -0.43672,0.005 -0.797588,-0.36436 -0.781508,-0.77333 0.0161,-0.40897 0.432398,-0.68886 0.848878,-0.6796 0.41649,0.009 0.5255,0.32808 0.5255,0.32808 0,0 -0.40502,0.006 -0.53898,0.11717 -0.0678,0.0563 -0.10473,0.15549 -0.0808,0.23435 0.038,0.12554 0.17514,0.25408 0.32339,0.26949 0.15987,0.0166 0.41771,-0.21091 0.41771,-0.21091 0.0269,0.28122 -0.27742,0.7102 -0.71415,0.71475 z"
       style="fill:#cccccc;fill-rule:evenodd;stroke:none;stroke-width:0.07332139px;stroke-linecap:butt;stroke-linejoin:miter;stroke-opacity:1" />
    <path
       sodipodi:nodetypes="zzzcaaacz"
       inkscape:connector-curvature="0"
       id="path1686-7"
       d="m 104.15895,220.93133 c -0.43671,0.005 -0.79759,-0.36436 -0.78151,-0.77333 0.0161,-0.40897 0.4324,-0.68886 0.84888,-0.6796 0.41648,0.009 0.52549,0.32808 0.52549,0.32808 0,0 -0.40501,0.006 -0.53896,0.11717 -0.0678,0.0563 -0.10474,0.15549 -0.0808,0.23435 0.038,0.12554 0.17513,0.25408 0.32338,0.26949 0.15986,0.0166 0.4177,-0.21091 0.4177,-0.21091 0.0269,0.28122 -0.27742,0.7102 -0.71414,0.71475 z"
       style="fill:#cccccc;fill-rule:evenodd;stroke:none;stroke-width:0.07332139px;stroke-linecap:butt;stroke-linejoin:miter;stroke-opacity:1" />
    <path
       sodipodi:nodetypes="zzzcaaacz"
       inkscape:connector-curvature="0"
       id="path1686-0"
       d="m 108.07249,217.98013 c -0.43672,0.005 -0.79759,-0.36436 -0.78151,-0.77333 0.0161,-0.40897 0.4324,-0.68886 0.84888,-0.6796 0.41648,0.009 0.52549,0.32808 0.52549,0.32808 0,0 -0.40501,0.006 -0.53897,0.11717 -0.0678,0.0563 -0.10473,0.15549 -0.0808,0.23435 0.038,0.12554 0.17514,0.25408 0.32339,0.26949 0.15986,0.0166 0.4177,-0.21091 0.4177,-0.21091 0.0269,0.28122 -0.27742,0.7102 -0.71414,0.71475 z"
       style="fill:#cccccc;fill-rule:evenodd;stroke:none;stroke-width:0.07332139px;stroke-linecap:butt;stroke-linejoin:miter;stroke-opacity:1" />
    <path
       sodipodi:nodetypes="zzzcaaacz"
       inkscape:connector-curvature="0"
       id="path1686-59"
       d="m 111.79355,215.15725 c -0.43671,0.005 -0.79759,-0.36436 -0.7815,-0.77333 0.0161,-0.40897 0.4324,-0.68886 0.84887,-0.6796 0.41648,0.009 0.5255,0.32808 0.5255,0.32808 0,0 -0.40502,0.006 -0.53897,0.11717 -0.0678,0.0563 -0.10474,0.15549 -0.0808,0.23435 0.038,0.12554 0.17514,0.25408 0.32338,0.26949 0.15987,0.0166 0.4177,-0.21091 0.4177,-0.21091 0.0269,0.28122 -0.27742,0.7102 -0.71413,0.71475 z"
       style="fill:#cccccc;fill-rule:evenodd;stroke:none;stroke-width:0.07332139px;stroke-linecap:butt;stroke-linejoin:miter;stroke-opacity:1" />
    <path
       sodipodi:nodetypes="zzzcaaacz"
       inkscape:connector-curvature="0"
       id="path1686-97"
       d="m 115.16954,217.1781 c -0.43672,0.005 -0.7976,-0.36436 -0.78151,-0.77333 0.0161,-0.40897 0.4324,-0.68886 0.84888,-0.6796 0.41648,0.009 0.52549,0.32808 0.52549,0.32808 0,0 -0.40501,0.006 -0.53897,0.11717 -0.0678,0.0563 -0.10474,0.15549 -0.0808,0.23435 0.038,0.12554 0.17514,0.25408 0.32338,0.26949 0.15987,0.0166 0.41771,-0.21091 0.41771,-0.21091 0.0269,0.28122 -0.27743,0.7102 -0.71414,0.71475 z"
       style="fill:#cccccc;fill-rule:evenodd;stroke:none;stroke-width:0.07332139px;stroke-linecap:butt;stroke-linejoin:miter;stroke-opacity:1" />
    <path
       sodipodi:nodetypes="zzzcaaacz"
       inkscape:connector-curvature="0"
       id="path1686-8"
       d="m 118.62049,219.13887 c -0.43671,0.005 -0.79759,-0.36436 -0.7815,-0.77333 0.0161,-0.40897 0.4324,-0.68886 0.84888,-0.6796 0.41647,0.009 0.52549,0.32808 0.52549,0.32808 0,0 -0.40502,0.006 -0.53897,0.11717 -0.0678,0.0563 -0.10474,0.15549 -0.0808,0.23435 0.038,0.12554 0.17514,0.25408 0.32338,0.26949 0.15987,0.0166 0.4177,-0.21091 0.4177,-0.21091 0.0269,0.28122 -0.27742,0.7102 -0.71413,0.71475 z"
       style="fill:#cccccc;fill-rule:evenodd;stroke:none;stroke-width:0.07332139px;stroke-linecap:butt;stroke-linejoin:miter;stroke-opacity:1" />
    <path
       sodipodi:nodetypes="zzzcaaacz"
       inkscape:connector-curvature="0"
       id="path1686-1"
       d="m 121.91459,221.0212 c -0.43672,0.005 -0.7976,-0.36436 -0.78151,-0.77333 0.0161,-0.40897 0.4324,-0.68886 0.84888,-0.6796 0.41647,0.009 0.52549,0.32808 0.52549,0.32808 0,0 -0.40501,0.006 -0.53897,0.11717 -0.0678,0.0563 -0.10474,0.15549 -0.0808,0.23435 0.038,0.12554 0.17514,0.25408 0.32338,0.26949 0.15987,0.0166 0.4177,-0.21091 0.4177,-0.21091 0.0269,0.28122 -0.27742,0.7102 -0.71413,0.71475 z"
       style="fill:#cccccc;fill-rule:evenodd;stroke:none;stroke-width:0.07332139px;stroke-linecap:butt;stroke-linejoin:miter;stroke-opacity:1" />
    <path
       sodipodi:nodetypes="zzzcaaacz"
       inkscape:connector-curvature="0"
       id="path1686-55"
       d="m 125.20867,223.06041 c -0.43671,0.005 -0.79759,-0.36436 -0.7815,-0.77333 0.0161,-0.40897 0.4324,-0.68886 0.84888,-0.6796 0.41647,0.009 0.52549,0.32808 0.52549,0.32808 0,0 -0.40502,0.006 -0.53897,0.11717 -0.0678,0.0563 -0.10474,0.15549 -0.0808,0.23435 0.038,0.12554 0.17514,0.25408 0.32338,0.26949 0.15987,0.0166 0.4177,-0.21091 0.4177,-0.21091 0.0269,0.28122 -0.27742,0.7102 -0.71413,0.71475 z"
       style="fill:#cccccc;fill-rule:evenodd;stroke:none;stroke-width:0.07332139px;stroke-linecap:butt;stroke-linejoin:miter;stroke-opacity:1" />
    <path
       sodipodi:nodetypes="zzzcaaacz"
       inkscape:connector-curvature="0"
       id="path1686-4"
       d="m 121.91458,224.23687 c -0.43671,0.005 -0.79759,-0.36436 -0.78151,-0.77333 0.0161,-0.40897 0.4324,-0.68886 0.84888,-0.6796 0.41648,0.009 0.52549,0.32808 0.52549,0.32808 0,0 -0.40501,0.006 -0.53896,0.11717 -0.0678,0.0563 -0.10474,0.15549 -0.0808,0.23435 0.038,0.12554 0.17513,0.25408 0.32338,0.26949 0.15986,0.0166 0.4177,-0.21091 0.4177,-0.21091 0.0269,0.28122 -0.27742,0.7102 -0.71414,0.71475 z"
       style="fill:#cccccc;fill-rule:evenodd;stroke:none;stroke-width:0.07332139px;stroke-linecap:butt;stroke-linejoin:miter;stroke-opacity:1" />
    <path
       sodipodi:nodetypes="zzzcaaacz"
       inkscape:connector-curvature="0"
       id="path1686-08"
       d="m 113.05189,227.13881 c -0.43671,0.005 -0.79759,-0.36436 -0.7815,-0.77333 0.0161,-0.40897 0.4324,-0.68886 0.84887,-0.6796 0.41648,0.009 0.5255,0.32808 0.5255,0.32808 0,0 -0.40502,0.006 -0.53897,0.11717 -0.0678,0.0563 -0.10474,0.15549 -0.0808,0.23435 0.038,0.12554 0.17514,0.25408 0.32338,0.26949 0.15987,0.0166 0.4177,-0.21091 0.4177,-0.21091 0.0269,0.28122 -0.27742,0.7102 -0.71413,0.71475 z"
       style="fill:#cccccc;fill-rule:evenodd;stroke:none;stroke-width:0.07332139px;stroke-linecap:butt;stroke-linejoin:miter;stroke-opacity:1" />
    <path
       sodipodi:nodetypes="zzzcaaacz"
       inkscape:connector-curvature="0"
       id="path1686-11"
       d="m 107.64017,228.78586 c -0.43671,0.005 -0.79759,-0.36436 -0.7815,-0.77333 0.0161,-0.40897 0.43239,-0.68886 0.84887,-0.6796 0.41648,0.009 0.5255,0.32808 0.5255,0.32808 0,0 -0.40502,0.006 -0.53897,0.11717 -0.0678,0.0563 -0.10474,0.15549 -0.0808,0.23435 0.038,0.12554 0.17513,0.25408 0.32338,0.26949 0.15986,0.0166 0.4177,-0.21091 0.4177,-0.21091 0.0269,0.28122 -0.27742,0.7102 -0.71413,0.71475 z"
       style="fill:#cccccc;fill-rule:evenodd;stroke:none;stroke-width:0.07332139px;stroke-linecap:butt;stroke-linejoin:miter;stroke-opacity:1" />
    <path
       sodipodi:nodetypes="zzzcaaacz"
       inkscape:connector-curvature="0"
       id="path1686-87"
       d="m 101.75786,230.58976 c -0.43671,0.005 -0.79759,-0.36436 -0.78151,-0.77333 0.0161,-0.40897 0.4324,-0.68886 0.84888,-0.6796 0.41648,0.009 0.5255,0.32808 0.5255,0.32808 0,0 -0.40502,0.006 -0.53897,0.11717 -0.0678,0.0563 -0.10474,0.15549 -0.0808,0.23435 0.038,0.12554 0.17513,0.25408 0.32338,0.26949 0.15986,0.0166 0.4177,-0.21091 0.4177,-0.21091 0.0269,0.28122 -0.27742,0.7102 -0.71414,0.71475 z"
       style="fill:#cccccc;fill-rule:evenodd;stroke:none;stroke-width:0.07332139px;stroke-linecap:butt;stroke-linejoin:miter;stroke-opacity:1" />
    <path
       sodipodi:nodetypes="zzzcaaacz"
       inkscape:connector-curvature="0"
       id="path1686-49"
       d="m 95.953987,232.39368 c -0.43672,0.005 -0.7976,-0.36436 -0.78151,-0.77333 0.0161,-0.40897 0.4324,-0.68886 0.84888,-0.6796 0.41648,0.009 0.52549,0.32808 0.52549,0.32808 0,0 -0.40501,0.006 -0.53897,0.11717 -0.0678,0.0563 -0.10473,0.15549 -0.0808,0.23435 0.038,0.12554 0.17514,0.25408 0.32338,0.26949 0.15987,0.0166 0.41771,-0.21091 0.41771,-0.21091 0.0269,0.28122 -0.27743,0.7102 -0.71414,0.71475 z"
       style="fill:#cccccc;fill-rule:evenodd;stroke:none;stroke-width:0.07332139px;stroke-linecap:butt;stroke-linejoin:miter;stroke-opacity:1" />
    <path
       sodipodi:nodetypes="zzzcaaacz"
       inkscape:connector-curvature="0"
       id="path1686-96"
       d="m 89.757954,234.66816 c -0.436713,0.005 -0.797592,-0.36436 -0.781505,-0.77333 0.01609,-0.40897 0.432398,-0.68886 0.848877,-0.6796 0.41648,0.009 0.52549,0.32808 0.52549,0.32808 0,0 -0.40501,0.006 -0.53896,0.11717 -0.06784,0.0563 -0.104743,0.15549 -0.08084,0.23435 0.03804,0.12554 0.175135,0.25408 0.323385,0.26949 0.15986,0.0166 0.4177,-0.21091 0.4177,-0.21091 0.0269,0.28122 -0.27742,0.7102 -0.714137,0.71475 z"
       style="fill:#cccccc;fill-rule:evenodd;stroke:none;stroke-width:0.07332139px;stroke-linecap:butt;stroke-linejoin:miter;stroke-opacity:1" />
    <path
       sodipodi:nodetypes="zzzcaaacz"
       inkscape:connector-curvature="0"
       id="path1686-498"
       d="m 117.75776,225.72706 c -0.43671,0.005 -0.79759,-0.36436 -0.7815,-0.77333 0.0161,-0.40897 0.43239,-0.68886 0.84887,-0.6796 0.41648,0.009 0.5255,0.32808 0.5255,0.32808 0,0 -0.40502,0.006 -0.53897,0.11717 -0.0678,0.0563 -0.10474,0.15549 -0.0808,0.23435 0.038,0.12554 0.17513,0.25408 0.32338,0.26949 0.15986,0.0166 0.4177,-0.21091 0.4177,-0.21091 0.0269,0.28122 -0.27742,0.7102 -0.71413,0.71475 z"
       style="fill:#cccccc;fill-rule:evenodd;stroke:none;stroke-width:0.07332139px;stroke-linecap:butt;stroke-linejoin:miter;stroke-opacity:1" />
    <path
       transform="matrix(-1,0,0,1,794.17222,0)"
       sodipodi:nodetypes="ccccc"
       inkscape:connector-curvature="0"
       id="path1617-1"
       d="M 394.75473,201.41801 V 59.828225 l 4.66276,5.445761 -1.48357,132.142484 z"
       style="fill:#999999;fill-rule:evenodd;stroke:none;stroke-width:0.25195369px;stroke-linecap:butt;stroke-linejoin:miter;stroke-opacity:0.98492462;filter:url(#filter1663-6)" />
    <path
       sodipodi:nodetypes="cccc"
       inkscape:connector-curvature="0"
       id="path1667-2"
       d="m 445.40984,244.70267 -46.58401,-35.60562 -24.33051,13.94554 z"
       style="fill:#cccccc;fill-rule:evenodd;stroke:none;stroke-width:0.26458332px;stroke-linecap:butt;stroke-linejoin:miter;stroke-opacity:1" />
    <path
       sodipodi:nodetypes="cccc"
       inkscape:connector-curvature="0"
       id="path1667-6-0"
       d="m 432.94476,238.51905 -35.03049,-26.7749 -18.29618,10.48684 z"
       style="fill:#999999;fill-rule:evenodd;stroke:none;stroke-width:0.19896278px;stroke-linecap:butt;stroke-linejoin:miter;stroke-opacity:1" />
    <path
       sodipodi:nodetypes="zzzcaaacz"
       inkscape:connector-curvature="0"
       id="path1686-084"
       d="m 426.77961,236.06124 c 0.43671,0.005 0.79759,-0.36436 0.7815,-0.77333 -0.0161,-0.40897 -0.43239,-0.68886 -0.84887,-0.6796 -0.41648,0.009 -0.5255,0.32808 -0.5255,0.32808 0,0 0.40502,0.006 0.53897,0.11717 0.0678,0.0563 0.10474,0.15549 0.0808,0.23435 -0.038,0.12554 -0.17513,0.25408 -0.32338,0.26949 -0.15986,0.0166 -0.4177,-0.21091 -0.4177,-0.21091 -0.0269,0.28122 0.27742,0.7102 0.71413,0.71475 z"
       style="fill:#cccccc;fill-rule:evenodd;stroke:none;stroke-width:0.07332139px;stroke-linecap:butt;stroke-linejoin:miter;stroke-opacity:1" />
    <path
       sodipodi:nodetypes="zzzcaaacz"
       inkscape:connector-curvature="0"
       id="path1686-9-7"
       d="m 421.3801,232.06693 c 0.43671,0.005 0.79759,-0.36436 0.7815,-0.77333 -0.0161,-0.40897 -0.43239,-0.68886 -0.84887,-0.6796 -0.41648,0.009 -0.5255,0.32808 -0.5255,0.32808 0,0 0.40502,0.006 0.53897,0.11717 0.0678,0.0563 0.10474,0.15549 0.0808,0.23435 -0.038,0.12554 -0.17513,0.25408 -0.32338,0.26949 -0.15986,0.0166 -0.4177,-0.21091 -0.4177,-0.21091 -0.0269,0.28122 0.27742,0.7102 0.71413,0.71475 z"
       style="fill:#cccccc;fill-rule:evenodd;stroke:none;stroke-width:0.07332139px;stroke-linecap:butt;stroke-linejoin:miter;stroke-opacity:1" />
    <path
       sodipodi:nodetypes="zzzcaaacz"
       inkscape:connector-curvature="0"
       id="path1686-94-2"
       d="m 416.88915,228.85912 c 0.43672,0.005 0.79759,-0.36436 0.78151,-0.77333 -0.0161,-0.40897 -0.4324,-0.68886 -0.84888,-0.6796 -0.41648,0.009 -0.52549,0.32808 -0.52549,0.32808 0,0 0.40501,0.006 0.53896,0.11717 0.0678,0.0563 0.10474,0.15549 0.0808,0.23435 -0.038,0.12554 -0.17513,0.25408 -0.32338,0.26949 -0.15986,0.0166 -0.4177,-0.21091 -0.4177,-0.21091 -0.0269,0.28122 0.27742,0.7102 0.71414,0.71475 z"
       style="fill:#cccccc;fill-rule:evenodd;stroke:none;stroke-width:0.07332139px;stroke-linecap:butt;stroke-linejoin:miter;stroke-opacity:1" />
    <path
       sodipodi:nodetypes="zzzcaaacz"
       inkscape:connector-curvature="0"
       id="path1686-5-2"
       d="m 412.65483,225.77961 c 0.43671,0.005 0.79759,-0.36436 0.7815,-0.77333 -0.0161,-0.40897 -0.43239,-0.68886 -0.84887,-0.6796 -0.41648,0.009 -0.5255,0.32808 -0.5255,0.32808 0,0 0.40502,0.006 0.53897,0.11717 0.0678,0.0563 0.10474,0.15549 0.0808,0.23435 -0.038,0.12554 -0.17513,0.25408 -0.32338,0.26949 -0.15986,0.0166 -0.4177,-0.21091 -0.4177,-0.21091 -0.0269,0.28122 0.27742,0.7102 0.71413,0.71475 z"
       style="fill:#cccccc;fill-rule:evenodd;stroke:none;stroke-width:0.07332139px;stroke-linecap:butt;stroke-linejoin:miter;stroke-opacity:1" />
    <path
       sodipodi:nodetypes="zzzcaaacz"
       inkscape:connector-curvature="0"
       id="path1686-2-4"
       d="m 408.93376,223.02088 c 0.43672,0.005 0.79758,-0.36436 0.78151,-0.77333 -0.0161,-0.40897 -0.4324,-0.68886 -0.84888,-0.6796 -0.41649,0.009 -0.5255,0.32808 -0.5255,0.32808 0,0 0.40502,0.006 0.53898,0.11717 0.0678,0.0563 0.10473,0.15549 0.0808,0.23435 -0.038,0.12554 -0.17514,0.25408 -0.32339,0.26949 -0.15987,0.0166 -0.41771,-0.21091 -0.41771,-0.21091 -0.0269,0.28122 0.27742,0.7102 0.71415,0.71475 z"
       style="fill:#cccccc;fill-rule:evenodd;stroke:none;stroke-width:0.07332139px;stroke-linecap:butt;stroke-linejoin:miter;stroke-opacity:1" />
    <path
       sodipodi:nodetypes="zzzcaaacz"
       inkscape:connector-curvature="0"
       id="path1686-7-9"
       d="m 405.341,220.26216 c 0.43671,0.005 0.79759,-0.36436 0.78151,-0.77333 -0.0161,-0.40897 -0.4324,-0.68886 -0.84888,-0.6796 -0.41648,0.009 -0.52549,0.32808 -0.52549,0.32808 0,0 0.40501,0.006 0.53896,0.11717 0.0678,0.0563 0.10474,0.15549 0.0808,0.23435 -0.038,0.12554 -0.17513,0.25408 -0.32338,0.26949 -0.15986,0.0166 -0.4177,-0.21091 -0.4177,-0.21091 -0.0269,0.28122 0.27742,0.7102 0.71414,0.71475 z"
       style="fill:#cccccc;fill-rule:evenodd;stroke:none;stroke-width:0.07332139px;stroke-linecap:butt;stroke-linejoin:miter;stroke-opacity:1" />
    <path
       sodipodi:nodetypes="zzzcaaacz"
       inkscape:connector-curvature="0"
       id="path1686-0-9"
       d="m 401.42746,217.31096 c 0.43672,0.005 0.79759,-0.36436 0.78151,-0.77333 -0.0161,-0.40897 -0.4324,-0.68886 -0.84888,-0.6796 -0.41648,0.009 -0.52549,0.32808 -0.52549,0.32808 0,0 0.40501,0.006 0.53897,0.11717 0.0678,0.0563 0.10473,0.15549 0.0808,0.23435 -0.038,0.12554 -0.17514,0.25408 -0.32339,0.26949 -0.15986,0.0166 -0.4177,-0.21091 -0.4177,-0.21091 -0.0269,0.28122 0.27742,0.7102 0.71414,0.71475 z"
       style="fill:#cccccc;fill-rule:evenodd;stroke:none;stroke-width:0.07332139px;stroke-linecap:butt;stroke-linejoin:miter;stroke-opacity:1" />
    <path
       sodipodi:nodetypes="zzzcaaacz"
       inkscape:connector-curvature="0"
       id="path1686-59-1"
       d="m 397.7064,214.48808 c 0.43671,0.005 0.79759,-0.36436 0.7815,-0.77333 -0.0161,-0.40897 -0.4324,-0.68886 -0.84887,-0.6796 -0.41648,0.009 -0.5255,0.32808 -0.5255,0.32808 0,0 0.40502,0.006 0.53897,0.11717 0.0678,0.0563 0.10474,0.15549 0.0808,0.23435 -0.038,0.12554 -0.17514,0.25408 -0.32339,0.26949 -0.15986,0.0166 -0.41769,-0.21091 -0.41769,-0.21091 -0.0269,0.28122 0.27742,0.7102 0.71413,0.71475 z"
       style="fill:#cccccc;fill-rule:evenodd;stroke:none;stroke-width:0.07332139px;stroke-linecap:butt;stroke-linejoin:miter;stroke-opacity:1" />
    <path
       sodipodi:nodetypes="zzzcaaacz"
       inkscape:connector-curvature="0"
       id="path1686-97-6"
       d="m 394.33041,216.50893 c 0.43672,0.005 0.7976,-0.36436 0.78151,-0.77333 -0.0161,-0.40897 -0.4324,-0.68886 -0.84888,-0.6796 -0.41648,0.009 -0.52549,0.32808 -0.52549,0.32808 0,0 0.40501,0.006 0.53897,0.11717 0.0678,0.0563 0.10474,0.15549 0.0808,0.23435 -0.038,0.12554 -0.17514,0.25408 -0.32339,0.26949 -0.15986,0.0166 -0.4177,-0.21091 -0.4177,-0.21091 -0.0269,0.28122 0.27743,0.7102 0.71414,0.71475 z"
       style="fill:#cccccc;fill-rule:evenodd;stroke:none;stroke-width:0.07332139px;stroke-linecap:butt;stroke-linejoin:miter;stroke-opacity:1" />
    <path
       sodipodi:nodetypes="zzzcaaacz"
       inkscape:connector-curvature="0"
       id="path1686-8-6"
       d="m 390.87946,218.4697 c 0.43671,0.005 0.79759,-0.36436 0.7815,-0.77333 -0.0161,-0.40897 -0.4324,-0.68886 -0.84888,-0.6796 -0.41647,0.009 -0.52549,0.32808 -0.52549,0.32808 0,0 0.40502,0.006 0.53897,0.11717 0.0678,0.0563 0.10474,0.15549 0.0808,0.23435 -0.038,0.12554 -0.17514,0.25408 -0.32338,0.26949 -0.15987,0.0166 -0.4177,-0.21091 -0.4177,-0.21091 -0.0269,0.28122 0.27741,0.7102 0.71413,0.71475 z"
       style="fill:#cccccc;fill-rule:evenodd;stroke:none;stroke-width:0.07332139px;stroke-linecap:butt;stroke-linejoin:miter;stroke-opacity:1" />
    <path
       sodipodi:nodetypes="zzzcaaacz"
       inkscape:connector-curvature="0"
       id="path1686-1-3"
       d="m 387.58536,220.35203 c 0.43672,0.005 0.7976,-0.36436 0.78151,-0.77333 -0.0161,-0.40897 -0.4324,-0.68886 -0.84888,-0.6796 -0.41647,0.009 -0.52549,0.32808 -0.52549,0.32808 0,0 0.40501,0.006 0.53897,0.11717 0.0678,0.0563 0.10474,0.15549 0.0808,0.23435 -0.038,0.12554 -0.17514,0.25408 -0.32338,0.26949 -0.15987,0.0166 -0.4177,-0.21091 -0.4177,-0.21091 -0.0269,0.28122 0.27742,0.7102 0.71413,0.71475 z"
       style="fill:#cccccc;fill-rule:evenodd;stroke:none;stroke-width:0.07332139px;stroke-linecap:butt;stroke-linejoin:miter;stroke-opacity:1" />
    <path
       sodipodi:nodetypes="zzzcaaacz"
       inkscape:connector-curvature="0"
       id="path1686-55-0"
       d="m 384.29128,222.39124 c 0.43671,0.005 0.79759,-0.36436 0.7815,-0.77333 -0.0161,-0.40897 -0.4324,-0.68886 -0.84888,-0.6796 -0.41647,0.009 -0.52549,0.32808 -0.52549,0.32808 0,0 0.40502,0.006 0.53897,0.11717 0.0678,0.0563 0.10474,0.15549 0.0808,0.23435 -0.038,0.12554 -0.17514,0.25408 -0.32338,0.26949 -0.15987,0.0166 -0.4177,-0.21091 -0.4177,-0.21091 -0.0269,0.28122 0.27742,0.7102 0.71413,0.71475 z"
       style="fill:#cccccc;fill-rule:evenodd;stroke:none;stroke-width:0.07332139px;stroke-linecap:butt;stroke-linejoin:miter;stroke-opacity:1" />
    <path
       sodipodi:nodetypes="zzzcaaacz"
       inkscape:connector-curvature="0"
       id="path1686-4-6"
       d="m 387.58537,223.5677 c 0.43671,0.005 0.79759,-0.36436 0.78151,-0.77333 -0.0161,-0.40897 -0.4324,-0.68886 -0.84888,-0.6796 -0.41648,0.009 -0.52549,0.32808 -0.52549,0.32808 0,0 0.40501,0.006 0.53896,0.11717 0.0678,0.0563 0.10474,0.15549 0.0808,0.23435 -0.038,0.12554 -0.17513,0.25408 -0.32338,0.26949 -0.15986,0.0166 -0.4177,-0.21091 -0.4177,-0.21091 -0.0269,0.28122 0.27742,0.7102 0.71413,0.71475 z"
       style="fill:#cccccc;fill-rule:evenodd;stroke:none;stroke-width:0.07332139px;stroke-linecap:butt;stroke-linejoin:miter;stroke-opacity:1" />
    <path
       sodipodi:nodetypes="zzzcaaacz"
       inkscape:connector-curvature="0"
       id="path1686-08-7"
       d="m 396.44806,226.46964 c 0.43671,0.005 0.79759,-0.36436 0.7815,-0.77333 -0.0161,-0.40897 -0.4324,-0.68886 -0.84887,-0.6796 -0.41648,0.009 -0.5255,0.32808 -0.5255,0.32808 0,0 0.40502,0.006 0.53897,0.11717 0.0678,0.0563 0.10474,0.15549 0.0808,0.23435 -0.038,0.12554 -0.17514,0.25408 -0.32338,0.26949 -0.15987,0.0166 -0.41771,-0.21091 -0.41771,-0.21091 -0.0269,0.28122 0.27743,0.7102 0.71414,0.71475 z"
       style="fill:#cccccc;fill-rule:evenodd;stroke:none;stroke-width:0.07332139px;stroke-linecap:butt;stroke-linejoin:miter;stroke-opacity:1" />
    <path
       sodipodi:nodetypes="zzzcaaacz"
       inkscape:connector-curvature="0"
       id="path1686-11-2"
       d="m 401.85978,228.11669 c 0.43671,0.005 0.79759,-0.36436 0.7815,-0.77333 -0.0161,-0.40897 -0.43239,-0.68886 -0.84887,-0.6796 -0.41648,0.009 -0.5255,0.32808 -0.5255,0.32808 0,0 0.40502,0.006 0.53897,0.11717 0.0678,0.0563 0.10474,0.15549 0.0808,0.23435 -0.038,0.12554 -0.17513,0.25408 -0.32338,0.26949 -0.15986,0.0166 -0.4177,-0.21091 -0.4177,-0.21091 -0.0269,0.28122 0.27742,0.7102 0.71413,0.71475 z"
       style="fill:#cccccc;fill-rule:evenodd;stroke:none;stroke-width:0.07332139px;stroke-linecap:butt;stroke-linejoin:miter;stroke-opacity:1" />
    <path
       sodipodi:nodetypes="zzzcaaacz"
       inkscape:connector-curvature="0"
       id="path1686-87-8"
       d="m 407.74209,229.92059 c 0.43671,0.005 0.79759,-0.36436 0.78151,-0.77333 -0.0161,-0.40897 -0.4324,-0.68886 -0.84888,-0.6796 -0.41648,0.009 -0.5255,0.32808 -0.5255,0.32808 0,0 0.40502,0.006 0.53897,0.11717 0.0678,0.0563 0.10474,0.15549 0.0808,0.23435 -0.038,0.12554 -0.17513,0.25408 -0.32338,0.26949 -0.15986,0.0166 -0.4177,-0.21091 -0.4177,-0.21091 -0.0269,0.28122 0.27742,0.7102 0.71414,0.71475 z"
       style="fill:#cccccc;fill-rule:evenodd;stroke:none;stroke-width:0.07332139px;stroke-linecap:butt;stroke-linejoin:miter;stroke-opacity:1" />
    <path
       sodipodi:nodetypes="zzzcaaacz"
       inkscape:connector-curvature="0"
       id="path1686-49-6"
       d="m 413.54596,231.72451 c 0.43672,0.005 0.7976,-0.36436 0.78151,-0.77333 -0.0161,-0.40897 -0.4324,-0.68886 -0.84888,-0.6796 -0.41648,0.009 -0.52549,0.32808 -0.52549,0.32808 0,0 0.40501,0.006 0.53897,0.11717 0.0678,0.0563 0.10473,0.15549 0.0808,0.23435 -0.038,0.12554 -0.17514,0.25408 -0.32338,0.26949 -0.15987,0.0166 -0.41771,-0.21091 -0.41771,-0.21091 -0.0269,0.28122 0.27743,0.7102 0.71414,0.71475 z"
       style="fill:#cccccc;fill-rule:evenodd;stroke:none;stroke-width:0.07332139px;stroke-linecap:butt;stroke-linejoin:miter;stroke-opacity:1" />
    <path
       sodipodi:nodetypes="zzzcaaacz"
       inkscape:connector-curvature="0"
       id="path1686-96-4"
       d="m 419.74199,233.99899 c 0.43672,0.005 0.7976,-0.36436 0.78151,-0.77333 -0.0161,-0.40897 -0.4324,-0.68886 -0.84888,-0.6796 -0.41648,0.009 -0.52549,0.32808 -0.52549,0.32808 0,0 0.40501,0.006 0.53896,0.11717 0.0678,0.0563 0.10474,0.15549 0.0808,0.23435 -0.038,0.12554 -0.17513,0.25408 -0.32338,0.26949 -0.15986,0.0166 -0.4177,-0.21091 -0.4177,-0.21091 -0.0269,0.28122 0.27742,0.7102 0.71413,0.71475 z"
       style="fill:#cccccc;fill-rule:evenodd;stroke:none;stroke-width:0.07332139px;stroke-linecap:butt;stroke-linejoin:miter;stroke-opacity:1" />
    <path
       sodipodi:nodetypes="zzzcaaacz"
       inkscape:connector-curvature="0"
       id="path1686-498-4"
       d="m 391.74219,225.05789 c 0.43671,0.005 0.79759,-0.36436 0.7815,-0.77333 -0.0161,-0.40897 -0.43239,-0.68886 -0.84887,-0.6796 -0.41648,0.009 -0.5255,0.32808 -0.5255,0.32808 0,0 0.40502,0.006 0.53897,0.11717 0.0678,0.0563 0.10474,0.15549 0.0808,0.23435 -0.038,0.12554 -0.17513,0.25408 -0.32338,0.26949 -0.15986,0.0166 -0.4177,-0.21091 -0.4177,-0.21091 -0.0269,0.28122 0.27742,0.7102 0.71413,0.71475 z"
       style="fill:#cccccc;fill-rule:evenodd;stroke:none;stroke-width:0.07332139px;stroke-linecap:butt;stroke-linejoin:miter;stroke-opacity:1" />
    <path
       sodipodi:nodetypes="ccccc"
       inkscape:connector-curvature="0"
       id="path1901"
       d="m 136.92529,228.70277 0.46944,-0.16382 5.06263,4.63305 -0.7843,0.29025 z"
       style="fill:#cccccc;fill-rule:evenodd;stroke:none;stroke-width:0.26458332px;stroke-linecap:butt;stroke-linejoin:miter;stroke-opacity:1" />
    <path
       sodipodi:nodetypes="ccccc"
       inkscape:connector-curvature="0"
       id="path1903"
       d="m 142.65991,233.90878 0.066,25.55531 -0.89186,0.33333 0.0944,-25.63201 z"
       style="fill:#cccccc;fill-opacity:1;fill-rule:evenodd;stroke:none;stroke-width:0.26458332px;stroke-linecap:butt;stroke-linejoin:miter;stroke-opacity:1" />
    <path
       sodipodi:nodetypes="ccccc"
       inkscape:connector-curvature="0"
       id="path1901-9"
       d="m 371.43902,228.81958 -0.46944,-0.16382 -5.06263,4.63305 0.7843,0.29025 z"
       style="fill:#cccccc;fill-rule:evenodd;stroke:none;stroke-width:0.26458332px;stroke-linecap:butt;stroke-linejoin:miter;stroke-opacity:1" />
    <path
       sodipodi:nodetypes="ccccc"
       inkscape:connector-curvature="0"
       id="path1903-1"
       d="m 365.79358,233.94012 -0.066,25.55531 0.89186,0.33333 -0.0944,-25.63201 z"
       style="fill:#cccccc;fill-opacity:1;fill-rule:evenodd;stroke:none;stroke-width:0.26458332px;stroke-linecap:butt;stroke-linejoin:miter;stroke-opacity:1" />
    <path
       sodipodi:nodetypes="cccssscc"
       inkscape:connector-curvature="0"
       id="path1956"
       d="m 241.64742,222.35031 h 24.68959 l 2.05747,26.74706 c 0,0 -3.34633,4.02892 -6.17995,5.20265 -2.00368,0.82994 -6.05355,0.96976 -8.22231,0.96976 -2.16877,0 -6.30231,-0.13982 -8.30598,-0.96976 -2.83362,-1.17373 -6.0963,-5.20265 -6.0963,-5.20265 z"
       style="fill:#999999;fill-rule:evenodd;stroke:none;stroke-width:0.20574668px;stroke-linecap:butt;stroke-linejoin:miter;stroke-opacity:1" />
    <path
       sodipodi:nodetypes="ssszs"
       inkscape:connector-curvature="0"
       id="path1951"
       d="m 266.1323,223.04637 c 0.8333,9.18413 -5.43501,16.69209 -12.13938,16.69209 -6.7044,0 -12.97273,-7.50796 -12.13942,-16.69209 1.05561,-11.63388 8.44479,-16.00756 12.13942,-16.00755 3.69459,1e-5 11.08378,4.37367 12.13938,16.00755 z"
       style="fill:#f9f9f9;fill-opacity:1;stroke:#b3e3f2;stroke-width:0.60698527;stroke-linejoin:round;stroke-miterlimit:4;stroke-dasharray:none;stroke-opacity:0.98492462" />
    <path
       sodipodi:nodetypes="ssszs"
       inkscape:connector-curvature="0"
       id="path1951-9"
       d="m 263.00728,223.11483 c 0.60697,6.68966 -3.95883,12.15841 -8.84225,12.15841 -4.88344,0 -9.44925,-5.46875 -8.84227,-12.15841 0.7689,-8.47405 6.15113,-11.47388 8.84227,-11.47387 2.69112,1e-5 8.07336,2.99982 8.84225,11.47387 z"
       style="fill:#b3e3f2;fill-opacity:1;stroke:#b3e3f2;stroke-width:0.44212416;stroke-linejoin:round;stroke-miterlimit:4;stroke-dasharray:none;stroke-opacity:0.98492462" />
    <path
       sodipodi:nodetypes="cssssssssc"
       inkscape:connector-curvature="0"
       id="rect1973"
       d="m 15.627836,270.96762 22.786519,-0.13243 c 1.5017,-0.009 2.715723,1.34241 2.771451,2.8431 l 0.05562,1.49773 c 0.05573,1.50069 -0.796984,2.68714 -2.297829,2.7385 l -23.315759,0.79792 c -1.500845,0.0514 -2.710693,-1.20897 -2.710693,-2.71069 l 0,-2.32346 c 0,-1.50172 1.209239,-2.73917 2.710693,-2.71069 z"
       style="fill:#cccccc;fill-opacity:1;stroke:#000000;stroke-width:0.5291667;stroke-linejoin:round;stroke-miterlimit:4;stroke-dasharray:none;stroke-opacity:1"
       transform="rotate(-17.889682)" />
    <path
       inkscape:connector-curvature="0"
       id="path1976"
       d="m 136.12243,336.89963 -1.85998,-5.5367 22.44957,-6.7911 1.38417,4.19578 z"
       style="fill:none;fill-rule:evenodd;stroke:#000000;stroke-width:0.26458332px;stroke-linecap:butt;stroke-linejoin:miter;stroke-opacity:1" />
    <g
       id="text1980"
       style="font-style:normal;font-variant:normal;font-weight:normal;font-stretch:normal;font-size:14.11111069px;line-height:125%;font-family:Arial;-inkscape-font-specification:Arial;letter-spacing:0px;word-spacing:0px;fill:#000000;fill-opacity:1;stroke:none;stroke-width:0.26458332px;stroke-linecap:butt;stroke-linejoin:miter;stroke-opacity:1"
       aria-label="Contact"
       transform="matrix(0.98026958,0,0,0.98026958,1.9527425,4.8855599)">
      <path
         id="path1982"
         style="stroke-width:0.26458332px"
         d="m 103.85183,256.13241 c 0,0 0.7904,-0.0849 0.7904,-0.0849 0.0312,0.60295 -0.10397,1.12208 -0.4078,1.5589 -0.30487,0.43761 -0.7531,0.76701 -1.34867,0.98741 -0.62504,0.23132 -1.17912,0.30754 -1.65879,0.22564 -0.48218,-0.0861 -0.90686,-0.31176 -1.27209,-0.67787 -0.36426,-0.36892 -0.632927,-0.80965 -0.804675,-1.3209 -0.187335,-0.55765 -0.227595,-1.08329 -0.121155,-1.57489 0.107888,-0.49237 0.3506,-0.91341 0.725806,-1.26248 0.373514,-0.34891 0.822234,-0.60175 1.344254,-0.75967 0.58469,-0.17687 1.11425,-0.19309 1.59116,-0.0513 0.47265,0.14048 0.86077,0.42088 1.16666,0.84098 0,0 -0.67732,0.39111 -0.67732,0.39111 -0.25562,-0.3295 -0.53774,-0.54 -0.84709,-0.63109 -0.31116,-0.0916 -0.66152,-0.0775 -1.05227,0.0435 -0.4535,0.14049 -0.80439,0.35579 -1.05044,0.64631 -0.244991,0.29164 -0.376349,0.62315 -0.392861,0.99378 -0.01736,0.36919 0.03267,0.72911 0.150124,1.07897 0.151447,0.45112 0.358247,0.81971 0.619767,1.10513 0.26253,0.28106 0.57742,0.44815 0.94342,0.50174 0.36342,0.0532 0.72208,0.0152 1.07573,-0.11305 0.42638,-0.15458 0.74733,-0.39419 0.96486,-0.71834 0.2161,-0.32202 0.30272,-0.71472 0.26098,-1.17893 0,0 0,0 0,0"
         inkscape:connector-curvature="0" />
      <path
         id="path1984"
         style="stroke-width:0.26458332px"
         d="m 105.12528,255.62719 c -0.22515,-0.67333 -0.18901,-1.23911 0.10641,-1.69398 0.24515,-0.37537 0.60516,-0.63824 1.07745,-0.78952 0.51888,-0.1662 0.99137,-0.14132 1.4197,0.0718 0.42421,0.20928 0.72739,0.59021 0.912,1.14391 0.14955,0.44853 0.19718,0.82675 0.1428,1.13548 -0.053,0.30674 -0.19035,0.58106 -0.41295,0.82337 -0.22176,0.24306 -0.49468,0.42495 -0.81958,0.54517 -0.52663,0.19487 -1.01177,0.193 -1.45304,-0.009 -0.44241,-0.20423 -0.76756,-0.61378 -0.97279,-1.22757 0,0 0,0 0,0 m 0.67963,-0.23447 c 0.15433,0.46181 0.37767,0.76982 0.6689,0.92351 0.28896,0.15064 0.59314,0.16744 0.91184,0.0516 0.31392,-0.11405 0.53559,-0.32139 0.6663,-0.62154 0.13008,-0.29869 0.11803,-0.67785 -0.0357,-1.13866 -0.14492,-0.43444 -0.3587,-0.72827 -0.64242,-0.88199 -0.28358,-0.1575 -0.58264,-0.18533 -0.89785,-0.0823 -0.3224,0.10539 -0.55379,0.30713 -0.69281,0.60571 -0.13971,0.30009 -0.13264,0.68168 0.0217,1.1436 0,0 0,0 0,0"
         inkscape:connector-curvature="0" />
      <path
         id="path1986"
         style="stroke-width:0.26458332px"
         d="m 109.94776,255.88898 c 0,0 -1.15142,-3.45545 -1.15142,-3.45545 0,0 0.54208,-0.17421 0.54208,-0.17421 0,0 0.16268,0.48842 0.16268,0.48842 0.13262,-0.46076 0.44051,-0.76755 0.91994,-0.92112 0.20649,-0.0661 0.40715,-0.0894 0.60217,-0.0702 0.19559,0.0164 0.35484,0.0698 0.47818,0.16025 0.12308,0.0902 0.22812,0.21051 0.31525,0.36095 0.0557,0.0979 0.12712,0.27779 0.21421,0.53973 0,0 0.68201,2.05142 0.68201,2.05142 0,0 -0.56092,0.20695 -0.56092,0.20695 0,0 -0.67986,-2.04398 -0.67986,-2.04398 -0.0772,-0.23216 -0.157,-0.39782 -0.23943,-0.49705 -0.0832,-0.10145 -0.19356,-0.16713 -0.33125,-0.197 -0.13665,-0.0328 -0.28246,-0.0239 -0.43756,0.0268 -0.24898,0.0815 -0.43963,0.23057 -0.57121,0.44765 -0.12998,0.21733 -0.12201,0.54606 0.0243,0.9854 0,0 0.62369,1.87262 0.62369,1.87262 0,0 -0.59287,0.21874 -0.59287,0.21874"
         inkscape:connector-curvature="0" />
      <path
         id="path1988"
         style="stroke-width:0.26458332px"
         d="m 114.56837,253.63139 c 0,0 0.23768,0.45829 0.23768,0.45829 -0.13786,0.0875 -0.26596,0.15319 -0.38417,0.19687 -0.19386,0.0717 -0.35547,0.0956 -0.48437,0.0715 -0.12926,-0.0242 -0.23326,-0.0798 -0.3118,-0.16697 -0.0793,-0.0893 -0.17467,-0.30156 -0.286,-0.63669 0,0 -0.63019,-1.89704 -0.63019,-1.89704 0,0 -0.40582,0.13293 -0.40582,0.13293 0,0 -0.14528,-0.43718 -0.14528,-0.43718 0,0 0.40662,-0.13068 0.40662,-0.13068 0,0 -0.2715,-0.81728 -0.2715,-0.81728 0,0 0.436,-0.50273 0.436,-0.50273 0,0 0.38019,1.14497 0.38019,1.14497 0,0 0.54307,-0.17453 0.54307,-0.17453 0,0 0.14234,0.42888 0.14234,0.42888 0,0 -0.542,0.17755 -0.542,0.17755 0,0 0.63576,1.91466 0.63576,1.91466 0.0525,0.15819 0.0952,0.25666 0.12815,0.29541 0.0349,0.038 0.0776,0.0628 0.12812,0.0744 0.0525,0.0109 0.11821,0.002 0.19722,-0.0266 0.0592,-0.0214 0.13451,-0.0567 0.22598,-0.10578 0,0 0,-2e-5 0,-2e-5"
         inkscape:connector-curvature="0" />
      <path
         id="path1990"
         style="stroke-width:0.26458332px"
         d="m 117.06801,252.82685 c -0.12822,0.23493 -0.26702,0.41907 -0.41645,0.552 -0.14825,0.13287 -0.3219,0.23626 -0.52124,0.31002 -0.33145,0.12265 -0.61666,0.13189 -0.85428,0.0265 -0.23946,-0.10792 -0.40444,-0.29714 -0.49408,-0.56726 -0.0526,-0.15844 -0.0663,-0.31467 -0.0413,-0.46848 0.0263,-0.15625 0.0816,-0.29294 0.16585,-0.41004 0.0859,-0.11742 0.19143,-0.21997 0.31636,-0.30766 0.0921,-0.0629 0.23583,-0.14222 0.43046,-0.23767 0.39362,-0.19194 0.67288,-0.3554 0.84037,-0.49145 -0.0223,-0.0737 -0.0368,-0.12051 -0.0433,-0.14028 -0.072,-0.2174 -0.17009,-0.35493 -0.29446,-0.41266 -0.16887,-0.0786 -0.3812,-0.0762 -0.63787,0.008 -0.24127,0.0789 -0.40589,0.18274 -0.49288,0.31152 -0.086,0.12652 -0.11928,0.31304 -0.0996,0.55953 0,0 -0.5369,0.0991 -0.5369,0.0991 -0.0292,-0.24499 -0.0132,-0.45504 0.0477,-0.63 0.0601,-0.1765 0.17856,-0.33454 0.35485,-0.47394 0.17469,-0.14068 0.39256,-0.25266 0.65293,-0.33606 0.25669,-0.0822 0.47447,-0.11689 0.65407,-0.10448 0.17883,0.0124 0.32091,0.0548 0.42666,0.12741 0.10487,0.0704 0.19598,0.17351 0.27344,0.30922 0.0464,0.0849 0.10857,0.24509 0.18657,0.48065 0,0 0.23393,0.70654 0.23393,0.70654 0.16306,0.49247 0.2763,0.80077 0.33973,0.92493 0.0645,0.12147 0.14728,0.23067 0.24811,0.32753 0,0 -0.51141,0.18869 -0.51141,0.18869 -0.0877,-0.0916 -0.16351,-0.20869 -0.22719,-0.35134 0,0 -4e-5,1e-5 -4e-5,1e-5 m -0.43584,-1.1761 c -0.15522,0.14181 -0.4066,0.30416 -0.75614,0.48786 -0.1994,0.10513 -0.33665,0.19325 -0.41104,0.26405 -0.0746,0.071 -0.12282,0.15415 -0.14468,0.24955 -0.0226,0.0935 -0.0181,0.18768 0.0133,0.28245 0.0482,0.14517 0.13997,0.24752 0.27519,0.30694 0.13675,0.0586 0.30451,0.0516 0.50277,-0.0205 0.19533,-0.071 0.35337,-0.17866 0.47451,-0.32273 0.12,-0.14548 0.18902,-0.30878 0.20739,-0.4901 0.0135,-0.13956 -0.0186,-0.32681 -0.0965,-0.5619 0,0 -0.0648,-0.1956 -0.0648,-0.1956"
         inkscape:connector-curvature="0" />
      <path
         id="path1992"
         style="stroke-width:0.26458332px"
         d="m 119.83434,251.00202 c 0,0 0.46814,-0.092 0.46814,-0.092 0.0653,0.36167 0.03,0.67693 -0.10652,0.9466 -0.13624,0.26869 -0.35239,0.45826 -0.64972,0.56829 -0.37608,0.13916 -0.72706,0.1153 -1.05155,-0.0736 -0.32553,-0.19278 -0.57474,-0.54842 -0.74605,-1.06605 -0.11079,-0.33479 -0.15656,-0.64494 -0.13735,-0.92985 0.0192,-0.28415 0.11175,-0.52166 0.2771,-0.71229 0.16554,-0.19206 0.36834,-0.32625 0.60789,-0.40298 0.30024,-0.0962 0.57156,-0.0907 0.81487,0.0155 0.24138,0.10369 0.43791,0.29854 0.59037,0.5846 0,0 -0.41903,0.22574 -0.41903,0.22574 -0.10966,-0.18863 -0.23621,-0.31617 -0.37987,-0.38259 -0.14239,-0.0672 -0.29154,-0.0754 -0.44765,-0.0244 -0.23719,0.0775 -0.39988,0.23518 -0.48717,0.4733 -0.0883,0.23716 -0.0651,0.5601 0.0699,0.96802 0.13683,0.41365 0.30839,0.68848 0.51406,0.82414 0.20483,0.1351 0.42136,0.16088 0.6491,0.0781 0.18184,-0.0661 0.31251,-0.18279 0.39251,-0.35002 0.0797,-0.16666 0.0933,-0.3834 0.041,-0.65046 0,0 0,0 0,0"
         inkscape:connector-curvature="0" />
      <path
         id="path1994"
         style="stroke-width:0.26458332px"
         d="m 121.83468,251.00354 c 0,0 0.20751,0.41708 0.20751,0.41708 -0.11181,0.0744 -0.21604,0.12947 -0.3126,0.16516 -0.15831,0.0585 -0.29109,0.0752 -0.39801,0.0499 -0.1072,-0.0254 -0.19431,-0.0781 -0.26119,-0.15826 -0.0676,-0.0821 -0.15135,-0.27459 -0.25131,-0.57738 0,0 -0.56583,-1.71384 -0.56583,-1.71384 0,0 -0.33063,0.1083 -0.33063,0.1083 0,0 -0.13036,-0.39475 -0.13036,-0.39475 0,0 0.33127,-0.10646 0.33127,-0.10646 0,0 -0.24375,-0.73829 -0.24375,-0.73829 0,0 0.34645,-0.43948 0.34645,-0.43948 0,0 0.34158,1.035 0.34158,1.035 0,0 0.44357,-0.14255 0.44357,-0.14255 0,0 0.12799,0.38796 0.12799,0.38796 0,0 -0.4427,0.14502 -0.4427,0.14502 0,0 0.57126,1.73092 0.57126,1.73092 0.0472,0.14302 0.0848,0.23233 0.11295,0.26793 0.0297,0.035 0.0656,0.0584 0.10754,0.0702 0.0436,0.0112 0.0976,0.005 0.16217,-0.0182 0.0483,-0.0175 0.10972,-0.0469 0.1841,-0.0883 0,0 -10e-6,-2e-5 -10e-6,-2e-5"
         inkscape:connector-curvature="0" />
    </g>
    <path
       sodipodi:nodetypes="sssssssss"
       inkscape:connector-curvature="0"
       id="rect1973-3"
       d="m 405.79459,251.35654 -21.84712,-7.56262 c -0.96076,-0.33258 -2.48849,0.56938 -3.3078,2.49421 l -0.51301,1.20523 c -0.42514,0.99879 -0.067,2.80204 1.3455,3.31195 l 21.94333,7.9216 c 1.41249,0.50995 2.95101,-0.31783 3.41231,-1.74694 l 0.71374,-2.21112 c 0.4613,-1.42911 -0.32784,-2.92107 -1.74695,-3.41231 z"
       style="fill:#cccccc;fill-opacity:1;stroke:#000000;stroke-width:0.52916664;stroke-linejoin:round;stroke-miterlimit:4;stroke-dasharray:none;stroke-opacity:1" />
    <path
       inkscape:connector-curvature="0"
       id="path2445"
       d="m 185.04737,329.55641 1.35921,-4.14237 22.52413,6.79607 -1.94173,5.5016 z"
       style="fill:none;fill-rule:evenodd;stroke:#000000;stroke-width:0.26458332px;stroke-linecap:butt;stroke-linejoin:miter;stroke-opacity:1" />
    <g
       id="text2449"
       style="font-style:normal;font-variant:normal;font-weight:normal;font-stretch:normal;font-size:14.11111069px;line-height:125%;font-family:Arial;-inkscape-font-specification:Arial;letter-spacing:0px;word-spacing:0px;fill:#000000;fill-opacity:1;stroke:none;stroke-width:0.26458332px;stroke-linecap:butt;stroke-linejoin:miter;stroke-opacity:1"
       aria-label="Resume"
       transform="translate(213.33197,-28.737681)">
      <path
         id="path2451"
         style="stroke-width:0.26458332px"
         d="m 168.75859,278.22815 c 0,0 1.33741,-4.07592 1.33741,-4.07592 0,0 1.51427,0.45689 1.51427,0.45689 0.31278,0.0944 0.53981,0.20505 0.67943,0.33183 0.14091,0.12544 0.2295,0.30007 0.26534,0.52385 0.0359,0.22435 0.0152,0.45375 -0.0623,0.68769 -0.0998,0.30144 -0.26625,0.52829 -0.49839,0.68012 -0.23094,0.15103 -0.52391,0.19697 -0.87713,0.13885 0.0986,0.11176 0.1684,0.21292 0.20929,0.30331 0.0862,0.19547 0.15315,0.4265 0.20077,0.69315 0,0 0.23574,1.37348 0.23574,1.37348 0,0 -0.58846,-0.21805 -0.58846,-0.21805 0,0 -0.17327,-1.04073 -0.17327,-1.04073 -0.0513,-0.29856 -0.0982,-0.52901 -0.14076,-0.69188 -0.0425,-0.16249 -0.0894,-0.28191 -0.14074,-0.35843 -0.0497,-0.0758 -0.10607,-0.13601 -0.16921,-0.18057 -0.0469,-0.0306 -0.12836,-0.0656 -0.24421,-0.10497 0,0 -0.51638,-0.17541 -0.51638,-0.17541 0,0 -0.5973,1.81766 -0.5973,1.81766 0,0 -0.4341,-0.16087 -0.4341,-0.16087 m 1.1859,-2.12695 c 0,0 0.96615,0.32058 0.96615,0.32058 0.20907,0.0694 0.38195,0.0982 0.51802,0.0862 0.1372,-0.014 0.25617,-0.0681 0.35669,-0.16249 0.10136,-0.0965 0.17465,-0.21293 0.2197,-0.3492 0.066,-0.19967 0.0589,-0.38319 -0.0212,-0.55008 -0.0782,-0.16584 -0.24763,-0.28888 -0.50699,-0.36908 0,0 -1.08556,-0.33568 -1.08556,-0.33568 0,0 -0.44683,1.35975 -0.44683,1.35975"
         inkscape:connector-curvature="0" />
      <path
         id="path2453"
         style="stroke-width:0.26458332px"
         d="m 174.3381,279.14678 c 0,0 0.46567,0.24247 0.46567,0.24247 -0.18683,0.29929 -0.41427,0.50079 -0.68148,0.60465 -0.26555,0.10321 -0.55617,0.0957 -0.87097,-0.0213 -0.39246,-0.14587 -0.65455,-0.40005 -0.78898,-0.76213 -0.13132,-0.36125 -0.11337,-0.79222 0.0534,-1.2949 0.17275,-0.52068 0.42148,-0.88727 0.74781,-1.10051 0.3287,-0.21479 0.68118,-0.26298 1.05866,-0.14243 0.36935,0.11795 0.62552,0.3603 0.76623,0.72779 0.14156,0.36973 0.12408,0.82023 -0.053,1.3494 -0.0108,0.0322 -0.0278,0.0801 -0.0511,0.14383 0,0 -2.04173,-0.70955 -2.04173,-0.70955 -0.0969,0.34774 -0.1014,0.63888 -0.0132,0.87416 0.0886,0.23621 0.24505,0.39551 0.4702,0.47761 0.16854,0.0614 0.33023,0.0626 0.48486,0.003 0.1552,-0.0597 0.30643,-0.19037 0.45355,-0.39225 0,0 4e-5,2e-5 4e-5,2e-5 m -1.22611,-1.38815 c 0,0 1.52244,0.51846 1.52244,0.51846 0.0684,-0.27493 0.076,-0.49569 0.0228,-0.662 -0.0807,-0.25681 -0.23986,-0.42364 -0.47643,-0.50082 -0.21275,-0.0694 -0.41826,-0.0458 -0.61683,0.0701 -0.196,0.11595 -0.34647,0.30731 -0.45197,0.57427 0,0 0,0 0,0"
         inkscape:connector-curvature="0" />
      <path
         id="path2455"
         style="stroke-width:0.26458332px"
         d="m 175.21416,279.54187 c 0,0 0.50818,0.0851 0.50818,0.0851 -0.0459,0.22715 -0.0267,0.42083 0.0575,0.58135 0.0864,0.16169 0.24198,0.28368 0.46758,0.36594 0.22887,0.0835 0.41697,0.0942 0.56358,0.0316 0.14779,-0.0649 0.24561,-0.16777 0.2931,-0.30862 0.0426,-0.12638 0.0263,-0.24346 -0.0488,-0.35099 -0.0526,-0.074 -0.2033,-0.1973 -0.45077,-0.369 -0.33035,-0.22963 -0.5522,-0.40466 -0.66764,-0.52642 -0.11253,-0.12272 -0.18297,-0.26127 -0.2116,-0.41576 -0.0261,-0.15564 -0.0127,-0.3124 0.0403,-0.47049 0.0482,-0.14394 0.12165,-0.26726 0.22035,-0.37006 0.10138,-0.10443 0.21672,-0.18091 0.34615,-0.22938 0.098,-0.0385 0.22034,-0.058 0.36725,-0.0585 0.14999,-0.002 0.30224,0.0217 0.45681,0.071 0.23402,0.0747 0.42768,0.1779 0.5804,0.30959 0.15534,0.13293 0.25447,0.27813 0.2969,0.43537 0.0432,0.15549 0.0448,0.34632 0.005,0.57234 0,0 -0.528,-0.0929 -0.528,-0.0929 0.0347,-0.17774 0.0132,-0.33241 -0.0641,-0.46378 -0.0752,-0.1304 -0.21127,-0.22759 -0.40743,-0.29159 -0.23033,-0.0751 -0.40794,-0.0865 -0.53365,-0.0345 -0.12535,0.0519 -0.20673,0.13384 -0.2444,0.24608 -0.024,0.0714 -0.0254,0.14239 -0.004,0.213 0.0203,0.0727 0.067,0.14304 0.14018,0.21099 0.0427,0.0372 0.17329,0.13392 0.39274,0.29081 0.32085,0.22658 0.54155,0.39909 0.66012,0.51622 0.12162,0.11614 0.20172,0.2531 0.24002,0.41077 0.0384,0.15798 0.0252,0.3331 -0.0397,0.52507 -0.0634,0.18773 -0.17368,0.34675 -0.33049,0.47682 -0.15374,0.12829 -0.33896,0.20364 -0.55514,0.22626 -0.21437,0.0204 -0.43675,-0.0124 -0.66689,-0.0979 -0.37793,-0.14047 -0.63445,-0.33403 -0.77196,-0.58082 -0.13503,-0.2449 -0.17186,-0.5472 -0.11103,-0.90762 0,0 0,0 0,0"
         inkscape:connector-curvature="0" />
      <path
         id="path2457"
         style="stroke-width:0.26458332px"
         d="m 180.00442,282.39514 c 0,0 0.17201,-0.50473 0.17201,-0.50473 -0.38438,0.29534 -0.78973,0.36257 -1.21457,0.20466 -0.18597,-0.0691 -0.34632,-0.17164 -0.48129,-0.3074 -0.13247,-0.13448 -0.21814,-0.27273 -0.25735,-0.41495 -0.0365,-0.14336 -0.0421,-0.30363 -0.0169,-0.48094 0.0164,-0.11908 0.0655,-0.29952 0.14739,-0.54144 0,0 0.70431,-2.08108 0.70431,-2.08108 0,0 0.53418,0.17119 0.53418,0.17119 0,0 -0.63605,1.87612 -0.63605,1.87612 -0.10129,0.29876 -0.15868,0.5038 -0.17222,0.61528 -0.0175,0.16236 0.0131,0.30654 0.0921,0.43274 0.0799,0.1244 0.20029,0.21601 0.36149,0.27473 0.1619,0.059 0.32936,0.0707 0.50239,0.0347 0.17444,-0.0382 0.31744,-0.12322 0.42864,-0.25504 0.11419,-0.13349 0.22141,-0.34718 0.32153,-0.64102 0,0 0.62965,-1.84802 0.62965,-1.84802 0,0 0.56391,0.18072 0.56391,0.18072 0,0 -1.1838,3.46803 -1.1838,3.46803 0,0 -0.4954,-0.18356 -0.4954,-0.18356"
         inkscape:connector-curvature="0" />
      <path
         id="path2459"
         style="stroke-width:0.26458332px"
         d="m 181.38638,282.90721 c 0,0 1.20063,-3.50704 1.20063,-3.50704 0,0 0.52334,0.16771 0.52334,0.16771 0,0 -0.17034,0.49672 -0.17034,0.49672 0.16846,-0.13786 0.36176,-0.22992 0.5803,-0.27601 0.22035,-0.0486 0.44884,-0.0353 0.68573,0.0404 0.26535,0.0847 0.46453,0.20998 0.59661,0.37579 0.13488,0.1672 0.20343,0.36275 0.20524,0.58636 0.43668,-0.33033 0.89165,-0.42133 1.36638,-0.26973 0.37516,0.11981 0.63037,0.3152 0.76353,0.58626 0.13457,0.26995 0.12798,0.61839 -0.0201,1.04414 0,0 -0.88713,2.55037 -0.88713,2.55037 0,0 -0.63521,-0.23536 -0.63521,-0.23536 0,0 0.80619,-2.32248 0.80619,-2.32248 0.087,-0.2506 0.12801,-0.43764 0.12303,-0.56096 -0.002,-0.12475 -0.0457,-0.2387 -0.1315,-0.34173 -0.0856,-0.10278 -0.20147,-0.17796 -0.34736,-0.22562 -0.26225,-0.0857 -0.50848,-0.0704 -0.73915,0.045 -0.22884,0.11256 -0.40739,0.35548 -0.53636,0.72891 0,0 -0.726,2.10215 -0.726,2.10215 0,0 -0.60547,-0.22435 -0.60547,-0.22435 0,0 0.80454,-2.33423 0.80454,-2.33423 0.0935,-0.27134 0.11404,-0.4914 0.0616,-0.65979 -0.0523,-0.16802 -0.19063,-0.28853 -0.41403,-0.36149 -0.16894,-0.0552 -0.34041,-0.0614 -0.51444,-0.019 -0.17118,0.043 -0.31765,0.13969 -0.4397,0.28995 -0.12181,0.14996 -0.23782,0.38575 -0.34815,0.70741 0,0 -0.62754,1.82955 -0.62754,1.82955 0,0 -0.57461,-0.21291 -0.57461,-0.21291"
         inkscape:connector-curvature="0" />
      <path
         id="path2461"
         style="stroke-width:0.26458332px"
         d="m 190.39206,284.83441 c 0,0 0.70744,0.34588 0.70744,0.34588 -0.25791,0.35765 -0.58237,0.58882 -0.97182,0.69383 -0.38648,0.10421 -0.81664,0.0676 -1.28873,-0.10791 -0.58724,-0.21827 -0.98852,-0.55887 -1.20867,-1.02149 -0.21527,-0.46071 -0.21612,-0.9944 -0.004,-1.60413 0.22027,-0.63171 0.56188,-1.06615 1.02766,-1.30428 0.46991,-0.24025 0.98647,-0.27174 1.55207,-0.0911 0.55473,0.17716 0.95086,0.50071 1.18433,0.97157 0.23523,0.47441 0.23923,1.03672 0.0109,1.68362 -0.0139,0.0393 -0.036,0.0978 -0.0665,0.17554 0,0 -3.06508,-1.06519 -3.06508,-1.06519 -0.12027,0.42401 -0.10831,0.78578 0.0364,1.08646 0.14538,0.30212 0.3859,0.51484 0.72305,0.63777 0.25269,0.0921 0.49162,0.10847 0.71639,0.0484 0.22577,-0.0604 0.44121,-0.2099 0.64603,-0.44894 0,0 7e-5,2e-5 7e-5,2e-5 m -1.90013,-1.83815 c 0,0 2.28248,0.77729 2.28248,0.77729 0.0835,-0.33763 0.0801,-0.61281 -0.01,-0.82506 -0.13663,-0.3274 -0.38335,-0.54881 -0.73843,-0.66465 -0.3189,-0.10404 -0.62066,-0.0916 -0.90589,0.0362 -0.28117,0.12792 -0.49029,0.35326 -0.62836,0.67625 0,0 0,0 0,0"
         inkscape:connector-curvature="0" />
    </g>
    <path
       style="fill:#00ff00;fill-opacity:1;stroke:#00ff00;stroke-width:0.04954661;stroke-linejoin:round;stroke-miterlimit:4;stroke-dasharray:none;stroke-opacity:1"
       d="m 437.2625,272.22629 c -0.17374,0.47209 -0.71515,0.47066 -1.3114,0.25079 -0.51458,-0.18974 -1.06558,-0.52868 -0.85589,-1.02474 0.20969,-0.49607 1.00058,-0.33267 1.31139,-0.25079 0.61454,0.16188 1.02962,0.55265 0.8559,1.02474 z"
       id="path2685-2"
       inkscape:connector-curvature="0"
       sodipodi:nodetypes="zszsz" />
    <g
       id="g2821"
       transform="matrix(1.6065286,0,0,1.6065286,-259.34313,-158.71528)">
      <path
         sodipodi:nodetypes="zszsz"
         inkscape:connector-curvature="0"
         id="path2685"
         d="m 447.69103,273.9606 c -1.85545,5.04202 -7.6379,5.02669 -14.00594,2.67847 -5.49578,-2.02652 -11.38054,-5.64644 -9.14103,-10.94447 2.2395,-5.29804 10.68639,-3.55293 14.00592,-2.67849 6.56331,1.72894 10.99651,5.90248 9.14105,10.94449 z"
         style="fill:#cccccc;fill-opacity:1;stroke:#000000;stroke-width:0.52916664;stroke-linejoin:round;stroke-miterlimit:4;stroke-dasharray:none;stroke-opacity:1" />
      <path
         sodipodi:nodetypes="zszsz"
         inkscape:connector-curvature="0"
         id="path2685-7"
         d="m 444.94829,273.26746 c -1.39158,3.78149 -5.72839,3.76999 -10.50439,2.00885 -4.12182,-1.51989 -8.53536,-4.23481 -6.85574,-8.20832 1.67961,-3.9735 8.01475,-2.66467 10.50439,-2.00885 4.92244,1.29669 8.24732,4.42684 6.85574,8.20832 z"
         style="fill:#000000;fill-opacity:1;stroke:#000000;stroke-width:0.39687267;stroke-linejoin:round;stroke-miterlimit:4;stroke-dasharray:none;stroke-opacity:1" />
      <path
         sodipodi:nodetypes="zszsz"
         inkscape:connector-curvature="0"
         id="path2685-4"
         d="m 441.45886,272.1563 c -0.87207,2.36977 -3.58985,2.36257 -6.58286,1.25889 -2.58304,-0.95247 -5.34891,-2.65385 -4.29633,-5.14395 1.05258,-2.49011 5.02266,-1.6699 6.58285,-1.2589 3.08479,0.81261 5.16841,2.77419 4.29634,5.14396 z"
         style="fill:#000000;fill-opacity:1;stroke:#00ff00;stroke-width:0.24871089;stroke-linejoin:round;stroke-miterlimit:4;stroke-dasharray:none;stroke-opacity:1" />
      <path
         sodipodi:nodetypes="zszsz"
         inkscape:connector-curvature="0"
         id="path2685-3"
         d="m 440.09904,271.63922 c -0.65711,1.78566 -2.705,1.78023 -4.96027,0.9486 -1.94636,-0.7177 -4.03048,-1.99972 -3.23735,-3.87604 0.79313,-1.87633 3.78464,-1.25829 4.96028,-0.9486 2.32442,0.61231 3.89447,2.09039 3.23734,3.87604 z"
         style="fill:#000000;fill-opacity:1;stroke:#00ff00;stroke-width:0.1874072;stroke-linejoin:round;stroke-miterlimit:4;stroke-dasharray:none;stroke-opacity:1" />
      <path
         sodipodi:nodetypes="zszsz"
         inkscape:connector-curvature="0"
         id="path2685-1"
         d="m 438.47493,271.11254 c -0.40175,1.09174 -1.65382,1.08842 -3.03268,0.57996 -1.19,-0.4388 -2.46422,-1.22261 -1.97931,-2.36979 0.48492,-1.14718 2.31392,-0.76931 3.03269,-0.57997 1.42115,0.37436 2.38106,1.27806 1.9793,2.3698 z"
         style="fill:#000000;fill-opacity:1.0;stroke:#00ff00;stroke-width:0.11457989;stroke-linejoin:round;stroke-miterlimit:4;stroke-dasharray:none;stroke-opacity:1" />
      <path
         inkscape:connector-curvature="0"
         id="path2727"
         d="m 433.65758,274.4055 4.84337,-8.65399"
         style="fill:none;fill-rule:evenodd;stroke:#00ff00;stroke-width:0.27244386px;stroke-linecap:butt;stroke-linejoin:miter;stroke-opacity:1" />
      <path
         sodipodi:nodetypes="cc"
         inkscape:connector-curvature="0"
         id="path2729"
         d="m 428.67382,266.90233 15.29805,6.48713"
         style="fill:none;fill-rule:evenodd;stroke:#00ff00;stroke-width:0.26458332px;stroke-linecap:butt;stroke-linejoin:miter;stroke-opacity:1" />
    </g>
    <path
       style="opacity:1;fill:#e6e6e6;fill-opacity:1;stroke:#000000;stroke-width:0.65449727;stroke-linejoin:round;stroke-miterlimit:4;stroke-dasharray:none;stroke-opacity:1"
       d="m 123.30154,260.95864 c 0.66917,2.54005 -2.01988,5.84806 -6.31195,7.54154 -4.13239,1.63046 -8.42495,-0.3726 -9.23103,-3.39174 -0.80607,-3.01913 1.96363,-6.63209 6.31197,-7.54152 4.49739,-0.94062 8.56183,0.85168 9.23101,3.39172 z"
       id="path2770"
       inkscape:connector-curvature="0"
       sodipodi:nodetypes="zsssz" />
    <path
       style="opacity:0.58999999;fill:#b3e3f2;fill-opacity:1;stroke:#b3e3f2;stroke-width:0.50208932;stroke-linejoin:round;stroke-miterlimit:4;stroke-dasharray:none;stroke-opacity:1"
       d="m 121.40568,261.47608 c 0.51332,1.94855 -1.54953,4.48626 -4.84215,5.78538 -3.17013,1.25079 -6.46309,-0.28583 -7.08146,-2.60193 -0.61836,-2.31608 1.50637,-5.08772 4.84213,-5.78537 3.45014,-0.72159 6.56811,0.65334 7.08148,2.60192 z"
       id="path2770-6"
       inkscape:connector-curvature="0"
       sodipodi:nodetypes="zsssz" />
    <path
       style="fill:none;fill-rule:evenodd;stroke:#ffffff;stroke-width:0.32893151px;stroke-linecap:butt;stroke-linejoin:miter;stroke-opacity:1"
       d="m 110.43104,262.38333 7.6656,-2.60082 1.84795,3.96968 -7.46026,3.49059 z"
       id="path2788"
       inkscape:connector-curvature="0"
       sodipodi:nodetypes="ccccc" />
    <path
       style="fill:none;fill-rule:evenodd;stroke:#ffffff;stroke-width:0.32893151px;stroke-linecap:butt;stroke-linejoin:miter;stroke-opacity:1"
       d="m 110.63637,262.45178 5.2701,0.82131 2.05328,-3.49058"
       id="path2790"
       inkscape:connector-curvature="0" />
    <path
       style="fill:none;fill-rule:evenodd;stroke:#ffffff;stroke-width:0.32893151px;stroke-linecap:butt;stroke-linejoin:miter;stroke-opacity:1"
       d="m 114.1954,263.06777 -1.64263,4.10657"
       id="path2792"
       inkscape:connector-curvature="0" />
    <path
       style="fill:none;fill-rule:evenodd;stroke:#ffffff;stroke-width:0.32893151px;stroke-linecap:butt;stroke-linejoin:miter;stroke-opacity:1"
       d="m 116.65934,262.31489 3.07992,1.23197"
       id="path2794"
       inkscape:connector-curvature="0" />
  </g>
</svg>
