<?xml version="1.0" encoding="UTF-8" standalone="no"?>
<!-- Created with Inkscape (http://www.inkscape.org/) -->

<svg
   xmlns:dc="http://purl.org/dc/elements/1.1/"
   xmlns:cc="http://creativecommons.org/ns#"
   xmlns:rdf="http://www.w3.org/1999/02/22-rdf-syntax-ns#"
   xmlns:svg="http://www.w3.org/2000/svg"
   xmlns="http://www.w3.org/2000/svg"
   xmlns:sodipodi="http://sodipodi.sourceforge.net/DTD/sodipodi-0.dtd"
   xmlns:inkscape="http://www.inkscape.org/namespaces/inkscape"
   width="1920"
   height="1080"
   viewBox="0 0 508.00002 285.75"
   version="1.1"
   id="svg8"
   inkscape:version="0.92.3 (2405546, 2018-03-11)"
   sodipodi:docname="deck1_1.svg">
  <defs
     id="defs2">
    <inkscape:path-effect
       effect="bspline"
       id="path-effect817"
       is_visible="true"
       weight="33.333333"
       steps="2"
       helper_size="0"
       apply_no_weight="true"
       apply_with_weight="true"
       only_selected="false" />
  </defs>
  <sodipodi:namedview
     id="base"
     pagecolor="#ffffff"
     bordercolor="#666666"
     borderopacity="1.0"
     inkscape:pageopacity="0.0"
     inkscape:pageshadow="2"
     inkscape:zoom="0.7303806"
     inkscape:cx="831.95233"
     inkscape:cy="466.22438"
     inkscape:document-units="mm"
     inkscape:current-layer="layer1"
     showgrid="true"
     units="px"
     inkscape:snap-global="false"
     showguides="true"
     inkscape:guide-bbox="true"
     inkscape:window-width="1920"
     inkscape:window-height="1017"
     inkscape:window-x="-8"
     inkscape:window-y="-8"
     inkscape:window-maximized="1">
    <inkscape:grid
       type="xygrid"
       id="grid821" />
    <sodipodi:guide
       position="254.24829,382.81373"
       orientation="1,0"
       id="guide827"
       inkscape:locked="false" />
  </sodipodi:namedview>
  <metadata
     id="metadata5">
    <rdf:RDF>
      <cc:Work
         rdf:about="">
        <dc:format>image/svg+xml</dc:format>
        <dc:type
           rdf:resource="http://purl.org/dc/dcmitype/StillImage" />
        <dc:title></dc:title>
      </cc:Work>
    </rdf:RDF>
  </metadata>
  <g
     inkscape:label="Layer 1"
     inkscape:groupmode="layer"
     id="layer1"
     transform="translate(0,-11.249984)">
    <path
       style="fill:none;fill-rule:evenodd;stroke:#000000;stroke-width:0.26458332px;stroke-linecap:butt;stroke-linejoin:miter;stroke-opacity:1"
       d="m 583.0253,107.73727 c -1.05956,-0.43707 -2.78521,-0.99435 -2.87163,-1.89132 -0.0623,-0.64665 4.89392,1.24652 7.36537,1.76016 30.75208,6.39115 55.62322,15.02738 86.50956,20.90897 30.88633,5.88159 64.63498,8.79835 95.90632,11.73783 25.23446,2.37202 96.76839,1.85869 96.76839,1.85869 l -17.58407,4.57101 c 0,0 -55.86042,1.17349 -83.54198,-1.92777 -61.70308,-6.91283 -125.15447,-13.34087 -182.55196,-37.01757 z"
       id="path819"
       inkscape:connector-curvature="0"
       sodipodi:nodetypes="assssccaa" />
    <path
       sodipodi:nodetypes="assssccaa"
       inkscape:connector-curvature="0"
       id="path823"
       d="m 1083.4632,107.73727 c 1.0595,-0.43707 2.7852,-0.99435 2.8716,-1.89132 0.062,-0.64665 -4.8939,1.24652 -7.3654,1.76016 -30.7521,6.39115 -55.6232,15.02738 -86.50953,20.90897 -30.88632,5.88159 -64.63497,9.11234 -95.90631,12.05182 -25.23446,2.37202 -86.10264,1.28217 -86.10264,1.28217 l 6.91832,4.83354 c 0,0 55.86042,1.17349 83.54198,-1.92777 61.70308,-6.91283 125.15448,-13.34087 182.55198,-37.01757 z"
       style="fill:none;fill-rule:evenodd;stroke:#000000;stroke-width:0.26458332px;stroke-linecap:butt;stroke-linejoin:miter;stroke-opacity:1" />
    <path
       style="fill:none;fill-rule:evenodd;stroke:#000000;stroke-width:0.26458332px;stroke-linecap:butt;stroke-linejoin:miter;stroke-opacity:1"
       d="m 18.448854,288.35207 c -3.214337,1.33475 -8.6852669,4.19443 -10.3774802,1.15306 -1.6635966,-2.98994 3.3276802,-6.452 6.3417942,-8.07138 59.670165,-32.05877 115.029162,-48.6374 176.086832,-58.5171 55.71972,-9.01597 114.04984,-11.38908 169.33333,0 49.76392,10.25198 100.54167,31.75 140.01533,60.24668 2.38352,1.7207 3.74979,6.51233 1.72957,8.64791 -1.8677,1.97433 -5.72167,0.21265 -8.07138,-1.15306 -43.71518,-25.4082 -82.5618,-47.41901 -128.38185,-57.1582 -58.66173,-12.46872 -120.69989,-9.48899 -179.91667,0 -57.77924,9.25865 -111.124997,31.75 -166.759476,54.85209 z"
       id="path825"
       inkscape:connector-curvature="0"
       sodipodi:nodetypes="sssssssssss" />
    <path
       style="fill:none;fill-rule:evenodd;stroke:#000000;stroke-width:0.26458332px;stroke-linecap:butt;stroke-linejoin:miter;stroke-opacity:1"
       d="M 58.096258,31.766178 105.83333,58.874983 V 222.91665 l -43.005775,35.56052 64.844885,-21.83912 -11.25577,-13.7214 5.29166,-164.041667 15.875,-13.229166 -79.487071,-13.879639"
       id="path829"
       inkscape:connector-curvature="0"
       sodipodi:nodetypes="ccccccccc" />
    <path
       style="fill:none;fill-rule:evenodd;stroke:#000000;stroke-width:0.26458332px;stroke-linecap:butt;stroke-linejoin:miter;stroke-opacity:1"
       d="M 456.6304,30.129012 412.75,58.874984 V 222.91665 l 41.77296,33.09489 -61.37059,-24.52889 9.01429,-8.566 L 396.875,58.874984 377.36747,44.883271 456.6304,30.129012"
       id="path829-9"
       inkscape:connector-curvature="0"
       sodipodi:nodetypes="ccccccccc" />
    <path
       style="fill:none;fill-rule:evenodd;stroke:#000000;stroke-width:0.26458332px;stroke-linecap:butt;stroke-linejoin:miter;stroke-opacity:1"
       d="m 24.995527,120.94451 v 5.79607 l 133.671743,42.38373 115.9213,-0.36226 -0.36226,-10.14311 -112.29875,-0.36226 -136.569773,-46.00626 z"
       id="path846"
       inkscape:connector-curvature="0" />
  </g>
</svg>
