<?xml version="1.0" encoding="UTF-8" standalone="no"?>
<!-- Created with Inkscape (http://www.inkscape.org/) -->

<svg
   xmlns:dc="http://purl.org/dc/elements/1.1/"
   xmlns:cc="http://creativecommons.org/ns#"
   xmlns:rdf="http://www.w3.org/1999/02/22-rdf-syntax-ns#"
   xmlns:svg="http://www.w3.org/2000/svg"
   xmlns="http://www.w3.org/2000/svg"
   xmlns:sodipodi="http://sodipodi.sourceforge.net/DTD/sodipodi-0.dtd"
   xmlns:inkscape="http://www.inkscape.org/namespaces/inkscape"
   width="60"
   height="60"
   viewBox="0 0 15.875 15.875001"
   version="1.1"
   id="svg8"
   inkscape:version="0.92.3 (2405546, 2018-03-11)"
   sodipodi:docname="git_icon_red.svg">
  <defs
     id="defs2" />
  <sodipodi:namedview
     id="base"
     pagecolor="#ffffff"
     bordercolor="#666666"
     borderopacity="1.0"
     inkscape:pageopacity="0.0"
     inkscape:pageshadow="2"
     inkscape:zoom="9.3827484"
     inkscape:cx="26.27162"
     inkscape:cy="34.055187"
     inkscape:document-units="mm"
     inkscape:current-layer="layer1"
     showgrid="true"
     units="px"
     inkscape:snap-global="true"
     inkscape:window-width="1920"
     inkscape:window-height="1017"
     inkscape:window-x="-8"
     inkscape:window-y="-8"
     inkscape:window-maximized="1">
    <inkscape:grid
       type="xygrid"
       id="grid1081" />
  </sodipodi:namedview>
  <metadata
     id="metadata5">
    <rdf:RDF>
      <cc:Work
         rdf:about="">
        <dc:format>image/svg+xml</dc:format>
        <dc:type
           rdf:resource="http://purl.org/dc/dcmitype/StillImage" />
        <dc:title></dc:title>
      </cc:Work>
    </rdf:RDF>
  </metadata>
  <g
     inkscape:label="Layer 1"
     inkscape:groupmode="layer"
     id="layer1"
     transform="translate(0,-281.12498)">
    <path
       sodipodi:open="true"
       d="m 15.653779,289.01776 a 7.6575537,7.6575537 0 0 1 -7.6532959,7.65755 7.6575537,7.6575537 0 0 1 -7.66180716,-7.64903 7.6575537,7.6575537 0 0 1 7.64477436,-7.66606 7.6575537,7.6575537 0 0 1 7.6703097,7.64051"
       sodipodi:end="6.280961"
       sodipodi:start="0"
       sodipodi:ry="7.6575537"
       sodipodi:rx="7.6575537"
       sodipodi:cy="289.01776"
       sodipodi:cx="7.9962249"
       sodipodi:type="arc"
       id="path7354"
       style="opacity:1;fill:#ff0000;fill-opacity:1;stroke-width:1.79234529" />
    <g
       id="g1333"
       transform="matrix(1.7601634,0,0,1.7601634,-511.92113,-149.29972)">
      <path
         sodipodi:open="true"
         d="m 299.77194,249.04736 a 4.3745117,4.3745117 0 0 1 -4.37208,4.37451 4.3745117,4.3745117 0 0 1 -4.37694,-4.36964 4.3745117,4.3745117 0 0 1 4.36721,-4.37937 4.3745117,4.3745117 0 0 1 4.3818,4.36477"
         sodipodi:end="6.280961"
         sodipodi:start="0"
         sodipodi:ry="4.3745117"
         sodipodi:rx="4.3745117"
         sodipodi:cy="249.04736"
         sodipodi:cx="295.39743"
         sodipodi:type="arc"
         id="path7354-1"
         style="opacity:1;fill:#ffffff;fill-opacity:1;stroke-width:1.02390862" />
      <path
         sodipodi:nodetypes="cccscacaccaaaaaaaacsccaaacaccacczcaaacc"
         inkscape:connector-curvature="0"
         id="path1042"
         d="m 294.49406,250.90881 -0.35679,0.64871 -0.64871,0.0649 c 0,0 -0.49536,-0.70357 -0.87577,-0.84333 -0.1627,-0.0598 -0.51898,0.0324 -0.51898,0.0324 0,0 0.24792,0.20613 0.35682,0.32436 0.12014,0.13043 0.32435,0.42166 0.32435,0.42166 0,0 0.22781,0.46195 0.43813,0.5848 0.28707,0.16769 0.98903,0.12882 0.98903,0.12882 l 0.0164,0.9726 c 0,0 -1.13787,-0.38729 -1.57337,-0.77799 -0.76353,-0.68499 -1.49538,-1.58146 -1.65423,-2.59485 -0.19423,-1.23907 0.20511,-2.63396 0.95481,-3.63943 0.59741,-0.80123 1.59379,-1.31064 2.56242,-1.55691 0.63749,-0.16208 1.34297,-0.10065 1.97105,0.0948 0.88685,0.27591 1.82311,0.71646 2.36781,1.46875 0.74612,1.03048 1.08437,2.45065 0.89905,3.70931 -0.13991,0.95025 -0.75838,1.82686 -1.45708,2.48591 -0.43265,0.4081 -1.58935,0.81089 -1.58935,0.81089 0,0 -0.22889,-0.14424 -0.22848,-0.25948 0.002,-0.63964 0.0218,-1.57805 0.016,-1.57338 l -0.2595,-0.48463 c 0,0 0.77008,-0.0801 1.08826,-0.27737 0.30363,-0.18821 0.57934,-0.47574 0.69904,-0.81232 0.2028,-0.57022 0.13436,-1.23832 -0.0494,-1.81497 -0.0474,-0.14874 -0.26043,-0.38923 -0.26043,-0.38923 0,0 0.1597,-0.35018 0.14669,-0.53447 -0.0162,-0.22963 -0.27453,-0.63369 -0.27453,-0.63369 l -1.11974,0.50251 c 0,0 -0.67958,-0.16191 -1.02578,-0.16265 -0.39286,-8.4e-4 -1.16482,0.17959 -1.16482,0.17959 l -1.03793,-0.48654 c 0,0 -0.32027,0.47311 -0.32438,0.68115 -0.004,0.20804 0.19462,0.4541 0.19462,0.4541 0,0 -0.23831,0.21278 -0.29191,0.35679 -0.21517,0.57807 -0.26006,1.2699 -0.0498,1.84979 0.1423,0.39255 0.4609,0.7413 0.82831,0.93969 0.26908,0.1453 0.9082,0.12975 0.9082,0.12975 z"
         style="fill:#ff0000;fill-rule:evenodd;stroke:none;stroke-width:0.26458332px;stroke-linecap:butt;stroke-linejoin:miter;stroke-opacity:1" />
    </g>
  </g>
</svg>
